<?xml version="1.0" standalone="no"?>
<!DOCTYPE svg PUBLIC "-//W3C//DTD SVG 1.1//EN" "http://www.w3.org/Graphics/SVG/1.1/DTD/svg11.dtd" >
<svg xmlns="http://www.w3.org/2000/svg" xmlns:xlink="http://www.w3.org/1999/xlink" version="1.1">
<metadata>
Created by FontForge 20190801 at Sat Sep  7 16:47:57 2019
 By Jimmy Wärting
</metadata>
<defs>
<font id="nintendoP_Humming-E002pr-AlphaNum" horiz-adv-x="1000" vert-adv-y="1000" >
  <font-face 
    font-weight="400"
    font-stretch="normal"
    units-per-em="1000"
    panose-1="2 0 5 3 0 0 0 0 0 0"
    ascent="800"
    descent="-200"
    x-height="535"
    cap-height="794"
    bbox="16 -100 989 860"
    underline-thickness="50"
    underline-position="-100"
    stemh="102"
    stemv="109"
    unicode-range="U+2160-325B"
  />
    <missing-glyph />
    <glyph glyph-name="Japan1.7555" unicode="&#x2460;" 
d="M980 380c0 -265 -215 -480 -480 -480s-480 215 -480 480s215 480 480 480s480 -215 480 -480zM922 379c0 233 -189 422 -422 422s-422 -189 -422 -422s189 -421 422 -421s422 188 422 421zM448 119v427c0 3 -1 5 -3 5s-5 -2 -7 -4c-1 -1 -79 -72 -109 -72
c-25 0 -46 27 -46 54c0 16 7 32 23 43c37 25 95 63 131 95c20 17 49 29 76 29c38 0 72 -23 72 -83v-494c0 -45 -34 -68 -68 -68c-35 0 -69 23 -69 68z" />
    <glyph glyph-name="Japan1.7556" unicode="&#x2461;" 
d="M980 380c0 -265 -215 -480 -480 -480s-480 215 -480 480s215 480 480 480s480 -215 480 -480zM922 379c0 233 -189 422 -422 422s-422 -189 -422 -422s189 -421 422 -421s422 188 422 421zM674 66h-354c-43 0 -66 27 -66 57c0 20 10 40 29 56c51 41 118 108 178 161
c38 33 119 115 119 178c0 45 -34 83 -99 83c-51 0 -107 -35 -127 -95c-6 -19 -26 -28 -46 -28c-25 0 -49 14 -49 42c0 60 87 180 244 180c121 0 226 -59 226 -182c0 -137 -119 -189 -189 -239c-45 -32 -97 -61 -128 -85c-2 -1 -3 -3 -3 -4c0 -4 11 -5 11 -5c12 1 19 1 66 1
c20 0 174 1 189 1c36 0 54 -31 54 -61s-18 -60 -55 -60z" />
    <glyph glyph-name="Japan1.7557" unicode="&#x2462;" 
d="M980 380c0 -265 -215 -480 -480 -480s-480 215 -480 480s215 480 480 480s480 -215 480 -480zM922 379c0 233 -189 422 -422 422s-422 -189 -422 -422s189 -421 422 -421s422 188 422 421zM437 450h25c53 0 113 29 113 92c0 40 -41 68 -99 68c-34 0 -89 -12 -117 -61
c-12 -21 -27 -29 -42 -29c-23 0 -44 20 -44 44c0 41 72 137 230 137c114 0 215 -57 215 -152c0 -44 -22 -111 -105 -138c75 -13 134 -76 134 -152c0 -132 -122 -205 -273 -205c-140 0 -227 77 -227 128c0 27 24 45 47 45c12 0 24 -5 32 -17c30 -45 92 -51 141 -51
c80 0 132 40 132 105c0 53 -49 92 -124 92c-13 0 -27 -1 -39 -1c-33 0 -49 24 -49 47c0 24 16 48 50 48z" />
    <glyph glyph-name="Japan1.7558" unicode="&#x2463;" 
d="M980 380c0 -265 -215 -480 -480 -480s-480 215 -480 480s215 480 480 480s480 -215 480 -480zM922 379c0 233 -189 422 -422 422s-422 -189 -422 -422s189 -421 422 -421s422 188 422 421zM682 177h-54v-34c0 -45 -32 -67 -64 -67s-64 22 -64 67v34h-242
c-51 0 -67 29 -67 61c0 23 9 48 20 63l279 375c16 21 44 32 70 32c35 0 68 -19 68 -59v-368h53c33 0 49 -26 49 -53c0 -25 -16 -51 -48 -51zM498 280v62c0 29 7 113 12 191c0 1 -3 1 -6 1h-1c-12 -15 -180 -243 -180 -248s7 -6 11 -6h164z" />
    <glyph glyph-name="Japan1.7559" unicode="&#x2464;" 
d="M980 380c0 -265 -215 -480 -480 -480s-480 215 -480 480s215 480 480 480s480 -215 480 -480zM922 379c0 233 -189 422 -422 422s-422 -189 -422 -422s189 -421 422 -421s422 188 422 421zM657 565h-255c-2 0 -7 -6 -7 -8l-14 -112c28 15 84 26 117 26
c110 0 248 -53 248 -208c0 -129 -109 -214 -271 -214c-105 0 -214 51 -214 108c0 26 23 47 47 47c12 0 24 -5 33 -18c19 -27 77 -37 118 -37c89 0 143 58 143 125c0 71 -57 117 -129 117c-41 0 -88 -16 -112 -45c-7 -9 -22 -14 -37 -14c-22 0 -45 12 -45 39v6l30 239
c6 51 29 66 76 66h271c39 0 59 -30 59 -60c0 -29 -19 -57 -58 -57z" />
    <glyph glyph-name="Japan1.7560" unicode="&#x2465;" 
d="M980 380c0 -265 -215 -480 -480 -480s-480 215 -480 480s215 480 480 480s480 -215 480 -480zM922 379c0 233 -189 422 -422 422s-422 -189 -422 -422s189 -421 422 -421s422 188 422 421zM375 448c30 25 84 43 141 43c157 0 228 -106 228 -211
c0 -122 -87 -221 -247 -221c-206 0 -262 150 -262 287c0 256 132 359 284 359c123 0 190 -42 190 -83c0 -25 -21 -45 -44 -45c-9 0 -18 3 -26 10c-31 28 -78 32 -116 32c-64 0 -136 -57 -148 -171zM499 139c83 0 99 73 99 144c0 70 -35 127 -102 127
c-69 0 -118 -45 -118 -140c0 -67 41 -131 121 -131z" />
    <glyph glyph-name="Japan1.7561" unicode="&#x2466;" 
d="M980 380c0 -265 -215 -480 -480 -480s-480 215 -480 480s215 480 480 480s480 -215 480 -480zM922 379c0 233 -189 422 -422 422s-422 -189 -422 -422s189 -421 422 -421s422 188 422 421zM607 518h-278c-41 0 -61 33 -61 67c0 33 20 67 60 67h353c44 0 70 -31 70 -74
c0 -25 -8 -53 -27 -81c-76 -115 -183 -281 -285 -444c-11 -18 -28 -26 -43 -26c-29 0 -57 24 -57 52c0 9 2 17 8 26c109 170 262 400 262 400c2 3 2 5 2 7c0 4 -3 6 -4 6z" />
    <glyph glyph-name="Japan1.7562" unicode="&#x2467;" 
d="M980 380c0 -265 -215 -480 -480 -480s-480 215 -480 480s215 480 480 480s480 -215 480 -480zM922 379c0 233 -189 422 -422 422s-422 -189 -422 -422s189 -421 422 -421s422 188 422 421zM626 403c54 -19 132 -74 132 -150c0 -131 -114 -197 -259 -197
c-144 0 -258 56 -258 182c0 77 66 136 135 159c-33 16 -111 56 -111 140c0 115 122 166 238 166c125 0 228 -56 228 -164c0 -73 -62 -117 -105 -136zM541 449c24 11 67 47 67 90c0 54 -44 91 -108 91c-60 0 -114 -28 -114 -69c0 -65 104 -92 155 -112zM457 355
c-27 -7 -91 -38 -91 -107c0 -74 63 -112 132 -112c57 0 129 15 129 87c0 74 -160 129 -170 132z" />
    <glyph glyph-name="Japan1.7563" unicode="&#x2468;" 
d="M980 380c0 -265 -215 -480 -480 -480s-480 215 -480 480s215 480 480 480s480 -215 480 -480zM922 379c0 233 -189 422 -422 422s-422 -189 -422 -422s189 -421 422 -421s422 188 422 421zM626 312c-39 -33 -97 -51 -156 -51c-141 0 -215 95 -215 201
c0 133 102 237 255 237c196 0 253 -162 253 -303c0 -222 -114 -347 -290 -347c-74 0 -187 25 -187 86c0 23 19 42 41 42c9 0 17 -2 26 -8c18 -12 63 -26 107 -26c81 0 156 58 166 169zM497 356c68 0 122 48 122 134c0 65 -42 129 -109 129c-72 0 -113 -69 -113 -141
c0 -85 48 -122 100 -122z" />
    <glyph glyph-name="Japan1.7564" unicode="&#x2469;" 
d="M980 380c0 -265 -215 -480 -480 -480s-480 215 -480 480s215 480 480 480s480 -215 480 -480zM922 379c0 233 -189 422 -422 422s-422 -189 -422 -422s189 -421 422 -421s422 188 422 421zM649 74c-129 0 -168 108 -168 295s44 311 170 311c127 0 168 -125 168 -312
s-39 -294 -170 -294zM287 131v405c0 9 -2 12 -5 12c-2 0 -4 -1 -7 -3c-27 -19 -41 -36 -72 -55c-6 -4 -12 -5 -18 -5c-20 0 -37 20 -37 42c0 13 6 26 21 36c39 26 78 61 115 93c14 12 34 19 53 19c30 0 59 -19 59 -65v-479c0 -36 -27 -54 -54 -54c-28 0 -55 18 -55 54z
M650 139c48 0 49 111 49 229c0 160 -5 245 -48 245c-48 0 -50 -138 -50 -244c0 -118 0 -230 49 -230z" />
    <glyph glyph-name="Japan1.7565" unicode="&#x246a;" 
d="M980 380c0 -265 -215 -480 -480 -480s-480 215 -480 480s215 480 480 480s480 -215 480 -480zM922 379c0 233 -189 422 -422 422s-422 -189 -422 -422s189 -421 422 -421s422 188 422 421zM636 126v405c0 9 -2 12 -6 12c-2 0 -4 -1 -7 -3c-27 -19 -41 -36 -72 -55
c-6 -4 -12 -5 -18 -5c-20 0 -36 20 -36 41c0 14 6 27 21 37c39 26 77 61 114 93c14 12 34 19 54 19c32 0 63 -19 63 -65v-479c0 -36 -28 -54 -56 -54c-29 0 -57 18 -57 54zM309 126v405c0 9 -2 12 -5 12c-2 0 -4 -1 -7 -3c-27 -19 -41 -36 -72 -55c-6 -4 -12 -5 -18 -5
c-20 0 -36 20 -36 41c0 14 6 27 21 37c39 26 77 61 114 93c14 12 34 19 54 19c32 0 63 -19 63 -65v-479c0 -36 -28 -54 -57 -54c-28 0 -57 18 -57 54z" />
    <glyph glyph-name="Japan1.7566" unicode="&#x246b;" 
d="M980 380c0 -265 -215 -480 -480 -480s-480 215 -480 480s215 480 480 480s480 -215 480 -480zM922 379c0 233 -189 422 -422 422s-422 -189 -422 -422s189 -421 422 -421s422 188 422 421zM750 85h-262c-29 0 -43 19 -43 43c0 16 7 34 20 49c32 36 91 105 151 177
c46 56 67 112 67 161c0 51 -26 84 -66 84c-46 0 -73 -30 -95 -96c-5 -15 -19 -23 -34 -23c-18 0 -37 13 -37 37c0 34 47 164 183 164c100 0 174 -56 174 -166c0 -85 -34 -139 -125 -219c-38 -33 -83 -77 -107 -94c-4 -2 -7 -7 -7 -10c0 -4 3 -7 14 -7h2c37 1 42 1 68 1
c15 0 82 1 97 1c35 0 53 -25 53 -51c0 -25 -18 -51 -53 -51zM282 131v405c0 9 -2 12 -6 12c-2 0 -4 -1 -7 -3c-27 -19 -41 -36 -72 -55c-6 -4 -12 -5 -18 -5c-20 0 -36 20 -36 41c0 14 6 27 21 37c39 26 78 60 115 93c14 12 34 19 53 19c30 0 59 -19 59 -65v-479
c0 -36 -27 -54 -54 -54c-28 0 -55 18 -55 54z" />
    <glyph glyph-name="Japan1.7567" unicode="&#x246c;" 
d="M980 380c0 -265 -215 -480 -480 -480s-480 215 -480 480s215 480 480 480s480 -215 480 -480zM922 379c0 233 -189 422 -422 422s-422 -189 -422 -422s189 -421 422 -421s422 188 422 421zM569 437h31c57 0 82 33 82 98c0 46 -14 76 -66 76c-22 0 -50 -7 -80 -62
c-11 -20 -25 -27 -38 -27c-19 0 -36 16 -36 35c0 22 44 124 177 124c77 0 161 -47 161 -138c0 -47 -24 -118 -101 -133c77 -9 121 -67 121 -145c0 -122 -78 -191 -207 -191c-86 0 -169 66 -169 110c0 23 20 41 39 41c9 0 18 -4 24 -13c30 -42 64 -57 105 -57
c65 0 85 48 85 113c0 61 -37 93 -88 93c-14 0 -29 -1 -41 -1c-23 0 -35 20 -35 39s12 38 36 38zM282 131v405c0 9 -2 12 -6 12c-2 0 -4 -1 -7 -3c-27 -19 -41 -36 -72 -55c-6 -4 -12 -5 -18 -5c-20 0 -36 20 -36 41c0 14 6 27 21 37c39 26 78 61 115 93c14 12 34 19 53 19
c30 0 59 -19 59 -65v-479c0 -36 -27 -54 -54 -54c-28 0 -55 18 -55 54z" />
    <glyph glyph-name="Japan1.7568" unicode="&#x246d;" 
d="M980 380c0 -265 -215 -480 -480 -480s-480 215 -480 480s215 480 480 480s480 -215 480 -480zM922 379c0 233 -189 422 -422 422s-422 -189 -422 -422s189 -421 422 -421s422 188 422 421zM807 178h-38v-44c0 -39 -27 -58 -53 -58c-27 0 -53 19 -53 58v44h-169
c-39 0 -54 26 -54 55c0 17 5 35 13 50l192 362c11 21 35 32 59 32c33 0 65 -20 65 -57v-351h35c27 0 40 -24 40 -47c0 -22 -12 -44 -37 -44zM282 131v405c0 9 -2 12 -6 12c-2 0 -4 -1 -7 -3c-27 -19 -41 -36 -72 -55c-6 -4 -12 -5 -18 -5c-20 0 -36 20 -36 41
c0 14 6 27 21 37c39 26 78 61 115 93c14 12 34 19 53 19c30 0 59 -19 59 -65v-479c0 -36 -27 -54 -54 -54c-28 0 -55 18 -55 54zM662 266v76c0 28 2 102 8 167v3c0 6 -2 9 -4 9c-1 0 -3 -2 -5 -7c-14 -38 -44 -100 -112 -228c-2 -5 -3 -9 -3 -12c0 -5 2 -8 8 -8h108z" />
    <glyph glyph-name="Japan1.7569" unicode="&#x246e;" 
d="M980 380c0 -265 -215 -480 -480 -480s-480 215 -480 480s215 480 480 480s480 -215 480 -480zM922 379c0 233 -189 422 -422 422s-422 -189 -422 -422s189 -421 422 -421s422 188 422 421zM751 570h-176c-7 0 -13 -11 -13 -14l-14 -114c29 20 72 25 96 25
c80 0 184 -48 184 -194c0 -116 -88 -199 -207 -199c-87 0 -167 49 -167 93c0 22 20 41 41 41c9 0 19 -4 27 -13c20 -21 52 -39 88 -39c64 0 91 47 91 127c0 74 -30 110 -84 110c-29 0 -62 -12 -85 -39c-7 -9 -18 -12 -30 -12c-20 0 -41 12 -41 32v3l28 234c5 44 30 58 71 58
h191c33 0 50 -25 50 -51c0 -24 -16 -48 -50 -48zM282 131v405c0 9 -2 12 -6 12c-2 0 -4 -1 -7 -3c-27 -19 -41 -36 -72 -55c-6 -4 -12 -5 -18 -5c-20 0 -36 20 -36 41c0 14 6 27 21 37c39 26 78 61 115 93c14 12 34 19 53 19c30 0 59 -19 59 -65v-479c0 -36 -27 -54 -54 -54
c-28 0 -55 18 -55 54z" />
    <glyph glyph-name="Japan1.7570" unicode="&#x246f;" 
d="M980 380c0 -265 -215 -480 -480 -480s-480 215 -480 480s215 480 480 480s480 -215 480 -480zM922 379c0 233 -189 422 -422 422s-422 -189 -422 -422s189 -421 422 -421s422 188 422 421zM580 421c11 23 54 54 94 54c122 0 156 -102 156 -196c0 -116 -63 -205 -183 -205
c-141 0 -177 138 -177 269c0 238 90 338 212 338c78 0 128 -43 128 -79c0 -21 -17 -36 -35 -36c-8 0 -16 3 -23 10c-26 27 -33 32 -65 32c-51 0 -102 -55 -107 -187zM282 131v405c0 9 -2 12 -6 12c-2 0 -4 -1 -7 -3c-27 -19 -41 -36 -72 -55c-6 -4 -12 -5 -18 -5
c-20 0 -36 20 -36 41c0 14 6 27 21 37c39 26 78 60 115 93c14 12 34 19 53 19c30 0 59 -19 59 -65v-479c0 -36 -27 -54 -54 -54c-28 0 -55 18 -55 54zM648 143c52 0 63 69 63 139c0 66 -8 120 -59 120c-45 0 -65 -61 -65 -133c0 -58 9 -126 61 -126z" />
    <glyph glyph-name="Japan1.7571" unicode="&#x2470;" 
d="M980 380c0 -265 -215 -480 -480 -480s-480 215 -480 480s215 480 480 480s480 -215 480 -480zM922 379c0 233 -189 422 -422 422s-422 -189 -422 -422s189 -421 422 -421s422 188 422 421zM700 547h-190c-35 0 -51 28 -51 57c0 30 17 60 51 60h241c39 0 69 -21 69 -61
c0 -15 -4 -33 -14 -54c-58 -122 -117 -284 -194 -455c-7 -16 -23 -24 -39 -24c-24 0 -48 16 -48 42c0 7 2 14 5 22c69 162 173 394 173 394c2 5 4 9 4 12c0 5 -3 7 -7 7zM297 125v405c0 9 -2 12 -5 12c-2 0 -4 -1 -7 -3c-27 -19 -41 -35 -72 -54c-6 -4 -12 -5 -18 -5
c-21 0 -37 20 -37 41c0 13 6 26 21 36c39 26 78 62 115 94c14 12 34 19 53 19c30 0 59 -19 59 -65v-480c0 -36 -27 -54 -54 -54c-28 0 -55 18 -55 54z" />
    <glyph glyph-name="Japan1.7572" unicode="&#x2471;" 
d="M980 380c0 -265 -215 -480 -480 -480s-480 215 -480 480s215 480 480 480s480 -215 480 -480zM922 379c0 233 -189 422 -422 422s-422 -189 -422 -422s189 -421 422 -421s422 188 422 421zM734 399c47 -23 96 -64 96 -144c0 -118 -83 -181 -190 -181s-182 52 -182 167
c0 63 27 130 95 158c-28 12 -81 48 -81 130c0 94 81 151 171 151c94 0 171 -50 171 -149c0 -79 -42 -123 -80 -132zM282 131v405c0 9 -2 12 -6 12c-2 0 -4 -1 -7 -3c-27 -19 -41 -36 -72 -55c-6 -4 -12 -5 -18 -5c-20 0 -36 20 -36 41c0 14 6 27 21 37c39 26 78 60 115 93
c14 12 34 19 53 19c30 0 59 -19 59 -65v-479c0 -36 -27 -54 -54 -54c-28 0 -55 18 -55 54zM670 442c20 11 42 36 42 86c0 57 -21 95 -73 95c-48 0 -65 -42 -65 -73c0 -65 59 -93 96 -108zM620 361c-21 -1 -59 -31 -59 -108c0 -64 22 -116 78 -116c46 0 82 23 82 91
c0 75 -67 120 -101 133z" />
    <glyph glyph-name="Japan1.7573" unicode="&#x2472;" 
d="M980 380c0 -265 -215 -480 -480 -480s-480 215 -480 480s215 480 480 480s480 -215 480 -480zM922 379c0 233 -189 422 -422 422s-422 -189 -422 -422s189 -421 422 -421s422 188 422 421zM708 332c-22 -38 -56 -56 -108 -56c-99 0 -147 89 -147 188
c0 120 56 217 182 217c148 0 189 -150 189 -281c0 -208 -58 -326 -199 -326c-58 0 -145 34 -145 80c0 21 18 38 37 38c5 0 11 -2 16 -5c23 -16 44 -32 80 -32c70 0 92 51 95 177zM282 131v405c0 9 -2 12 -6 12c-2 0 -4 -1 -7 -3c-27 -19 -41 -36 -72 -55
c-6 -4 -12 -5 -18 -5c-20 0 -36 20 -36 41c0 14 6 27 21 37c39 26 78 60 115 93c14 12 34 19 53 19c30 0 59 -19 59 -65v-479c0 -36 -27 -54 -54 -54c-28 0 -55 18 -55 54zM627 358c51 0 74 48 74 135c0 62 -13 123 -66 123c-51 0 -67 -62 -67 -135c0 -71 16 -123 59 -123z
" />
    <glyph glyph-name="Japan1.7574" unicode="&#x2473;" 
d="M980 380c0 -265 -215 -480 -480 -480s-480 215 -480 480s215 480 480 480s480 -215 480 -480zM922 379c0 233 -189 422 -422 422s-422 -189 -422 -422s189 -421 422 -421s422 188 422 421zM667 73c-116 0 -150 108 -150 295s39 311 153 311c115 0 151 -125 151 -312
s-35 -294 -154 -294zM436 85h-208c-27 0 -51 24 -51 55c0 12 4 26 14 40c159 218 176 243 176 335c0 61 -22 85 -54 85c-41 0 -62 -52 -73 -96c-4 -16 -19 -25 -35 -25c-18 0 -37 13 -37 37c0 41 48 165 163 165c96 0 151 -57 151 -166c0 -97 -35 -154 -205 -324v-2
s1 -4 5 -4c29 1 46 2 64 2h90c29 0 43 -25 43 -51c0 -25 -14 -51 -43 -51zM669 138c45 0 45 111 45 229c0 105 0 245 -44 245c-43 0 -45 -118 -45 -219c0 -175 2 -255 44 -255z" />
    <glyph glyph-name="Japan1.7575" unicode="&#x2160;" 
d="M410 16v688c0 61 44 90 89 90s91 -30 91 -90v-688c0 -60 -45 -90 -89 -90c-46 0 -91 30 -91 90z" />
    <glyph glyph-name="Japan1.7576" unicode="&#x2161;" 
d="M583 18v685c0 61 44 90 88 90s89 -30 89 -90v-685c0 -60 -44 -90 -88 -90s-89 30 -89 90zM240 18v685c0 61 44 90 88 90s89 -30 89 -90v-685c0 -60 -44 -90 -88 -90s-89 30 -89 90z" />
    <glyph glyph-name="Japan1.7577" unicode="&#x2162;" 
d="M687 18v685c0 61 42 90 84 90s85 -30 85 -90v-685c0 -60 -42 -90 -84 -90s-85 30 -85 90zM414 18v685c0 61 42 90 84 90s85 -30 85 -90v-685c0 -60 -42 -90 -84 -90s-85 30 -85 90zM144 18v685c0 61 42 90 84 90s85 -30 85 -90v-685c0 -60 -42 -90 -84 -90s-85 30 -85 90
z" />
    <glyph glyph-name="Japan1.7578" unicode="&#x2163;" 
d="M687 139l158 610c8 31 34 44 60 44c31 0 62 -19 62 -52c0 -4 0 -10 -2 -15l-203 -714c-16 -56 -60 -85 -105 -85c-49 0 -99 33 -117 98l-185 659c-3 10 -4 20 -4 28c0 52 45 82 89 82c36 0 71 -20 81 -62l144 -593c2 -6 7 -11 12 -11c4 0 8 4 10 11zM136 18v685
c0 61 41 90 83 90s84 -30 84 -90v-685c0 -60 -41 -90 -83 -90s-84 30 -84 90z" />
    <glyph glyph-name="Japan1.7579" unicode="&#x2164;" 
d="M536 138l223 613c11 30 36 42 61 42c34 0 69 -23 69 -58c0 -6 -1 -14 -4 -21l-269 -698c-23 -59 -70 -89 -119 -89s-99 31 -124 95l-255 649c-5 13 -7 25 -7 36c0 53 49 87 97 87c34 0 67 -16 81 -55l221 -601c2 -6 7 -9 13 -9c5 0 11 3 13 9z" />
    <glyph glyph-name="Japan1.7580" unicode="&#x2165;" 
d="M712 18v685c0 61 41 90 83 90s85 -30 85 -90v-685c0 -60 -42 -90 -83 -90c-43 0 -85 30 -85 90zM387 140l156 609c8 31 34 44 60 44c31 0 63 -19 63 -52c0 -5 0 -10 -2 -15l-202 -712c-16 -57 -60 -85 -106 -85c-48 0 -97 32 -116 97l-186 658c-3 10 -4 20 -4 28
c0 52 45 82 89 82c36 0 71 -20 81 -62l145 -592c2 -6 7 -11 12 -11c4 0 8 4 10 11z" />
    <glyph glyph-name="Japan1.7581" unicode="&#x2166;" 
d="M790 10v701c0 54 37 81 73 81c38 0 75 -27 75 -81v-701c0 -55 -37 -82 -73 -82c-38 0 -75 28 -75 82zM584 10v701c0 54 36 81 72 81c38 0 75 -28 75 -81v-701c0 -55 -37 -82 -73 -82c-37 0 -74 27 -74 82zM327 151l105 604c4 25 28 37 53 37c30 0 61 -18 61 -50
c0 -3 0 -7 -1 -11l-137 -687c-15 -76 -63 -116 -111 -116c-49 0 -98 40 -115 122l-134 658c-1 6 -2 11 -2 17c0 44 41 68 81 68c35 0 69 -18 76 -57l98 -585c1 -7 7 -11 13 -11s12 4 13 11z" />
    <glyph glyph-name="Japan1.7582" unicode="&#x2167;" 
d="M819 1v720c0 48 31 72 61 72c32 0 63 -25 63 -72v-720c0 -48 -31 -72 -62 -72s-62 24 -62 72zM658 1v720c0 48 31 72 61 72c32 0 63 -25 63 -72v-720c0 -48 -31 -72 -62 -72s-62 24 -62 72zM494 1v720c0 48 31 72 61 72c32 0 63 -25 63 -72v-720c0 -48 -31 -72 -62 -72
s-62 24 -62 72zM276 143l93 614c3 23 25 35 47 35c27 0 54 -16 54 -49c0 -3 0 -7 -1 -11l-122 -696c-13 -72 -54 -108 -96 -108c-43 0 -87 39 -101 114l-121 669c-1 5 -1 10 -1 15c0 43 37 66 73 66c32 0 64 -17 69 -54l84 -595c1 -7 6 -11 11 -11s10 4 11 11z" />
    <glyph glyph-name="Japan1.7583" unicode="&#x2168;" 
d="M813 -41l-183 316l-184 -315c-14 -23 -33 -33 -52 -33c-28 0 -55 23 -55 54c0 12 4 25 12 38l210 348l-183 301c-10 16 -14 32 -14 46c0 46 41 78 81 78c22 0 44 -10 58 -34l151 -263l157 270c11 19 30 28 50 28c30 0 60 -21 60 -55c0 -13 -4 -28 -15 -44l-184 -287
l214 -333c17 -26 23 -49 23 -69c0 -50 -44 -78 -85 -78c-25 0 -48 10 -61 32zM142 18v685c0 61 41 90 83 90s85 -30 85 -90v-685c0 -60 -42 -90 -83 -90c-43 0 -85 30 -85 90z" />
    <glyph glyph-name="Japan1.7584" unicode="&#x2169;" 
d="M715 -35l-229 307l-257 -317c-17 -21 -36 -29 -54 -29c-33 0 -61 29 -61 62c0 13 5 26 15 39l275 335l-224 301c-14 19 -20 37 -20 54c0 44 40 77 83 77c26 0 54 -12 75 -40l196 -262l204 271c16 21 36 30 55 30c36 0 70 -30 70 -65c0 -13 -5 -27 -16 -41l-227 -284
l261 -321c17 -21 25 -43 25 -63c0 -52 -48 -93 -97 -93c-26 0 -53 11 -74 39z" />
    <glyph glyph-name="Japan1.8061" 
d="M989 33c0 -59 -48 -106 -107 -106s-107 47 -107 106s48 107 107 107s107 -48 107 -107zM412 -83c-231 0 -339 181 -339 432c0 280 116 455 342 455c227 0 340 -179 340 -457c0 -256 -107 -430 -343 -430zM414 14c139 0 150 170 150 333c0 170 -2 364 -149 364
c-141 0 -152 -201 -152 -363c0 -157 12 -334 151 -334z" />
    <glyph glyph-name="Japan1.8062" unicode="&#x2488;" 
d="M989 33c0 -59 -48 -106 -107 -106s-107 47 -107 106s48 107 107 107s107 -48 107 -107zM357 15v586c0 12 -4 18 -11 18c-4 0 -9 -2 -14 -6c-55 -41 -130 -97 -165 -97c-34 0 -58 30 -58 60c0 19 9 38 30 51c62 37 138 87 198 133c24 18 64 32 101 32
c53 0 103 -27 103 -105v-672c0 -59 -46 -89 -93 -89c-45 0 -91 30 -91 89z" />
    <glyph glyph-name="Japan1.8063" unicode="&#x2489;" 
d="M989 33c0 -59 -48 -106 -107 -106s-107 47 -107 106s48 107 107 107s107 -48 107 -107zM638 -63h-473c-44 0 -72 31 -72 68c0 22 10 45 31 66c29 28 177 159 268 261c70 78 128 148 128 236c0 74 -41 116 -120 116c-80 0 -138 -44 -173 -139c-9 -26 -35 -39 -60 -39
c-30 0 -61 19 -61 56c0 56 78 241 326 241c178 0 286 -95 286 -249c0 -138 -71 -195 -220 -312c-78 -61 -147 -108 -208 -146c-3 -2 -5 -5 -5 -9c0 -5 3 -10 12 -10l124 2l216 4h2c55 0 83 -36 83 -73c0 -36 -28 -73 -84 -73z" />
    <glyph glyph-name="Japan1.8064" unicode="&#x248a;" 
d="M989 33c0 -59 -48 -106 -107 -106s-107 47 -107 106s48 107 107 107s107 -48 107 -107zM327 446h24c99 0 154 49 154 146c0 77 -61 105 -121 105c-51 0 -125 -22 -159 -89c-15 -29 -36 -40 -55 -40c-31 0 -58 25 -58 53c0 36 94 181 309 181c162 0 274 -77 274 -197
c0 -64 -30 -156 -158 -193c-2 0 -2 -1 -2 -1h2c125 -14 204 -107 204 -211c0 -179 -140 -282 -358 -282c-201 0 -309 120 -309 172c0 31 27 53 55 53c17 0 34 -7 47 -25c47 -64 123 -76 197 -76c110 0 167 66 167 165c0 71 -60 132 -155 132h-2c-20 0 -38 -2 -57 -2
c-37 0 -57 28 -57 55s19 54 58 54z" />
    <glyph glyph-name="Japan1.8065" unicode="&#x248b;" 
d="M989 33c0 -59 -48 -106 -107 -106s-107 47 -107 106s48 107 107 107s107 -48 107 -107zM704 68h-75v-53c0 -59 -41 -88 -83 -88c-41 0 -82 29 -82 88v53h-315c-61 0 -81 39 -81 80c0 29 9 58 22 76l367 525c21 30 57 45 91 45c42 0 81 -25 81 -77v-514h72
c42 0 63 -35 63 -69c0 -33 -20 -66 -60 -66zM463 201v91c0 40 3 156 11 264v5c0 8 -1 11 -3 11s-5 -3 -9 -9c-44 -69 -58 -91 -107 -158c0 0 -82 -109 -133 -181c-1 -2 -3 -6 -3 -10c0 -7 3 -13 14 -13h230z" />
    <glyph glyph-name="Japan1.8066" unicode="&#x248c;" 
d="M989 33c0 -59 -48 -106 -107 -106s-107 47 -107 106s48 107 107 107s107 -48 107 -107zM616 639h-322c-8 0 -16 -17 -16 -18l-23 -166c37 26 111 36 157 36c158 0 324 -74 324 -283c0 -176 -151 -290 -365 -290c-142 0 -277 74 -277 146c0 32 27 58 56 58
c16 0 32 -7 46 -24c28 -35 92 -65 151 -65c122 0 193 84 193 189s-64 167 -172 167c-60 0 -102 -19 -140 -61c-8 -9 -24 -13 -41 -13c-30 0 -63 14 -63 46v6l44 337c8 59 34 79 96 79h352c46 0 70 -37 70 -73s-23 -71 -70 -71z" />
    <glyph glyph-name="Japan1.8067" unicode="&#x248d;" 
d="M989 33c0 -59 -48 -106 -107 -106s-107 47 -107 106s48 107 107 107s107 -48 107 -107zM264 438c35 41 120 68 197 68c200 0 290 -148 290 -286c0 -169 -120 -302 -321 -302c-258 0 -342 202 -342 393c0 355 180 491 375 491c172 0 236 -66 236 -107
c0 -30 -26 -56 -56 -56c-11 0 -23 4 -35 13c-50 40 -87 44 -139 44c-75 0 -195 -78 -205 -258zM432 10c101 0 133 100 133 214c0 98 -56 190 -145 190c-99 0 -150 -82 -150 -209c0 -106 60 -195 162 -195z" />
    <glyph glyph-name="Japan1.8068" unicode="&#x248e;" 
d="M989 33c0 -59 -48 -106 -107 -106s-107 47 -107 106s48 107 107 107s107 -48 107 -107zM553 610h-354c-58 0 -87 43 -87 86s29 87 85 87h440c52 0 95 -39 95 -101c0 -31 -11 -68 -37 -109c-119 -185 -243 -368 -400 -609c-18 -28 -40 -39 -62 -39c-34 0 -65 30 -65 63
c0 11 4 22 11 33c166 240 380 560 380 560c4 6 6 11 6 16c0 8 -7 13 -12 13z" />
    <glyph glyph-name="Japan1.8069" unicode="&#x248f;" 
d="M989 33c0 -59 -48 -106 -107 -106s-107 47 -107 106s48 107 107 107s107 -48 107 -107zM575 392c78 -33 177 -105 177 -204c0 -186 -141 -270 -338 -270c-189 0 -339 76 -339 245c0 104 61 185 163 229c-50 25 -125 68 -125 187c0 144 153 224 306 224
c162 0 294 -80 294 -221c0 -102 -71 -174 -138 -190zM465 453c30 9 83 55 83 122c0 83 -47 140 -135 140c-85 0 -139 -41 -139 -103c0 -92 125 -135 191 -159zM352 336c-34 -2 -109 -52 -109 -154c0 -116 75 -171 169 -171c73 0 165 20 165 132c0 93 -142 157 -225 193z" />
    <glyph glyph-name="Japan1.8070" unicode="&#x2490;" 
d="M989 33c0 -59 -48 -106 -107 -106s-107 47 -107 106s48 107 107 107s107 -48 107 -107zM566 276c-68 -50 -129 -65 -211 -65c-185 0 -275 133 -275 278c0 179 138 314 330 314c254 0 331 -222 331 -413c0 -304 -147 -473 -380 -473c-108 0 -231 42 -231 109
c0 29 24 53 53 53c10 0 21 -3 32 -10c28 -19 68 -37 129 -37c77 0 205 35 222 244zM393 319c102 0 161 82 161 205c0 94 -47 192 -145 192c-104 0 -146 -105 -146 -210c0 -97 49 -187 130 -187z" />
    <glyph glyph-name="Japan1.8071" unicode="&#x2474;" 
d="M838 -66c-7 -10 -16 -14 -23 -14c-11 0 -20 9 -20 20c0 4 1 8 3 12c78 137 109 300 109 428c0 126 -32 291 -109 428c-2 4 -3 8 -3 12c0 11 9 19 20 19c7 0 16 -4 23 -13c95 -126 141 -271 141 -446s-44 -318 -141 -446zM442 47v545c0 10 -2 15 -7 15c-2 0 -6 -2 -10 -5
c-41 -29 -63 -54 -110 -83c-10 -6 -20 -9 -29 -9c-29 0 -52 28 -52 57c0 18 9 37 29 51c52 35 114 82 164 124c21 17 54 30 86 30c44 0 85 -24 85 -96v-629c0 -58 -39 -86 -78 -86s-78 28 -78 86zM185 -80c-7 0 -16 4 -23 14c-97 128 -141 271 -141 446s46 320 141 446
c7 9 16 13 23 13c11 0 20 -8 20 -19c0 -4 -1 -8 -3 -12c-77 -137 -109 -302 -109 -428c0 -128 31 -291 109 -428c2 -4 3 -8 3 -12c0 -11 -9 -20 -20 -20z" />
    <glyph glyph-name="Japan1.8072" unicode="&#x2475;" 
d="M838 -66c-7 -10 -16 -14 -23 -14c-11 0 -20 9 -20 20c0 4 1 8 3 12c78 137 109 300 109 428c0 126 -32 291 -109 428c-2 4 -3 8 -3 12c0 11 9 19 20 19c7 0 16 -4 23 -13c95 -126 141 -271 141 -446s-44 -318 -141 -446zM690 -17h-388c-49 0 -75 28 -75 64
c0 24 11 52 34 77c64 73 156 167 210 228c66 75 116 135 116 216c0 75 -38 115 -103 115s-116 -45 -141 -128c-8 -24 -30 -37 -52 -37c-26 0 -52 18 -52 52c0 55 72 228 272 228c154 0 248 -91 248 -242c0 -118 -66 -181 -192 -282c-69 -55 -138 -115 -170 -136
c-2 -1 -3 -4 -3 -7c0 -6 3 -12 8 -12c48 1 66 1 102 2l186 4h2c50 0 76 -36 76 -71c0 -36 -26 -71 -78 -71zM185 -80c-7 0 -16 4 -23 14c-97 128 -141 271 -141 446s46 320 141 446c7 9 16 13 23 13c11 0 20 -8 20 -19c0 -4 -1 -8 -3 -12c-77 -137 -109 -302 -109 -428
c0 -128 31 -291 109 -428c2 -4 3 -8 3 -12c0 -11 -9 -20 -20 -20z" />
    <glyph glyph-name="Japan1.8073" unicode="&#x2476;" 
d="M838 -66c-7 -10 -16 -14 -23 -14c-11 0 -20 9 -20 20c0 4 1 8 3 12c78 137 109 300 109 428c0 126 -32 291 -109 428c-2 4 -3 8 -3 12c0 11 9 19 20 19c7 0 16 -4 23 -13c95 -126 141 -271 141 -446s-44 -318 -141 -446zM426 463h21c83 0 129 43 129 133
c0 70 -38 97 -100 97c-44 0 -108 -23 -134 -80c-12 -26 -31 -36 -49 -36c-26 0 -50 21 -50 48c0 40 81 171 265 171c141 0 233 -77 233 -187c0 -64 -23 -144 -118 -178c-2 0 -3 -1 -3 -2c0 0 1 -1 2 -1c100 -19 158 -105 158 -197c0 -169 -120 -266 -306 -266
c-176 0 -263 115 -263 160c0 30 25 52 50 52c14 0 27 -7 37 -21c39 -58 106 -70 168 -70c94 0 142 60 142 152c0 64 -51 120 -131 120h-2c-17 0 -34 -1 -50 -1c-33 0 -50 27 -50 53c0 27 17 53 51 53zM185 -80c-7 0 -16 4 -23 14c-97 128 -141 271 -141 446s46 320 141 446
c7 9 16 13 23 13c11 0 20 -8 20 -19c0 -4 -1 -8 -3 -12c-77 -137 -109 -302 -109 -428c0 -128 31 -291 109 -428c2 -4 3 -8 3 -12c0 -11 -9 -20 -20 -20z" />
    <glyph glyph-name="Japan1.8074" unicode="&#x2477;" 
d="M838 -66c-7 -10 -16 -14 -23 -14c-11 0 -20 9 -20 20c0 4 1 8 3 12c78 137 109 300 109 428c0 126 -32 291 -109 428c-2 4 -3 8 -3 12c0 11 9 19 20 19c7 0 16 -4 23 -13c95 -126 141 -271 141 -446s-44 -318 -141 -446zM740 105h-65v-57c0 -50 -35 -75 -71 -75
c-34 0 -69 25 -69 75v57h-267c-55 0 -78 32 -78 71c0 25 10 54 26 79l315 490c17 27 48 42 77 42c35 0 67 -23 67 -73v-479h63c42 0 63 -33 63 -66c0 -32 -20 -64 -61 -64zM185 -80c-7 0 -16 4 -23 14c-97 128 -141 271 -141 446s46 320 141 446c7 9 16 13 23 13
c11 0 20 -8 20 -19c0 -4 -1 -8 -3 -12c-77 -137 -109 -302 -109 -428c0 -128 31 -291 109 -428c2 -4 3 -8 3 -12c0 -11 -9 -20 -20 -20zM534 233v84c0 37 4 144 11 245v7c0 4 0 6 -1 6s-3 -3 -6 -8c-29 -51 -196 -305 -203 -316c0 -1 -1 -3 -1 -4c0 -6 3 -14 8 -14h192z" />
    <glyph glyph-name="Japan1.8075" unicode="&#x2478;" 
d="M838 -66c-7 -10 -16 -14 -23 -14c-11 0 -20 9 -20 20c0 4 1 8 3 12c78 137 109 300 109 428c0 126 -32 291 -109 428c-2 4 -3 8 -3 12c0 11 9 19 20 19c7 0 16 -4 23 -13c95 -126 141 -271 141 -446s-44 -318 -141 -446zM677 638h-274c-7 0 -11 -9 -12 -16l-19 -149
c32 22 94 32 132 32c138 0 275 -69 275 -267c0 -164 -129 -273 -311 -273c-130 0 -237 72 -237 137c0 31 24 56 51 56c13 0 27 -6 38 -21c24 -32 79 -61 129 -61c103 0 161 80 161 176c0 97 -52 153 -143 153c-50 0 -86 -17 -118 -56c-7 -9 -22 -13 -37 -13
c-25 0 -53 13 -53 44v7l37 315c7 56 27 76 80 76h301c44 0 66 -35 66 -70s-22 -70 -66 -70zM185 -80c-7 0 -16 4 -23 14c-97 128 -141 271 -141 446s46 320 141 446c7 9 16 13 23 13c11 0 20 -8 20 -19c0 -4 -1 -8 -3 -12c-77 -137 -109 -302 -109 -428
c0 -128 31 -291 109 -428c2 -4 3 -8 3 -12c0 -11 -9 -20 -20 -20z" />
    <glyph glyph-name="Japan1.8076" unicode="&#x2479;" 
d="M838 -66c-7 -10 -16 -14 -23 -14c-11 0 -20 9 -20 20c0 4 1 8 3 12c78 137 109 300 109 428c0 126 -32 291 -109 428c-2 4 -3 8 -3 12c0 11 9 19 20 19c7 0 16 -4 23 -13c95 -126 141 -271 141 -446s-44 -318 -141 -446zM364 460c36 35 105 60 169 60
c171 0 247 -139 247 -271c0 -155 -103 -283 -275 -283c-224 0 -293 191 -293 369c0 333 153 461 321 461c161 0 202 -71 202 -100s-24 -53 -50 -53c-10 0 -20 3 -29 11c-44 38 -74 40 -118 40c-66 0 -164 -71 -174 -234zM185 -80c-7 0 -16 4 -23 14
c-97 128 -141 271 -141 446s46 320 141 446c7 9 16 13 23 13c11 0 20 -8 20 -19c0 -4 -1 -8 -3 -12c-77 -137 -109 -302 -109 -428c0 -128 31 -291 109 -428c2 -4 3 -8 3 -12c0 -11 -9 -20 -20 -20zM507 54c86 0 113 106 113 200c0 91 -37 176 -110 176
c-74 0 -141 -76 -141 -194c0 -94 49 -182 138 -182z" />
    <glyph glyph-name="Japan1.8077" unicode="&#x247a;" 
d="M838 -66c-7 -10 -16 -14 -23 -14c-11 0 -20 9 -20 20c0 4 1 8 3 12c78 137 109 300 109 428c0 126 -32 291 -109 428c-2 4 -3 8 -3 12c0 11 9 19 20 19c7 0 16 -4 23 -13c95 -126 141 -271 141 -446s-44 -318 -141 -446zM627 591h-298c-55 0 -82 41 -82 82
c0 42 28 84 81 84h368c47 0 88 -40 88 -102c0 -29 -9 -62 -30 -99c-101 -173 -206 -341 -339 -566c-17 -29 -39 -40 -60 -40c-30 0 -56 24 -56 53c0 9 3 19 9 29c140 224 322 535 322 535c3 6 5 10 5 14c0 7 -5 10 -8 10zM185 -80c-7 0 -16 4 -23 14
c-97 128 -141 271 -141 446s46 320 141 446c7 9 16 13 23 13c11 0 20 -8 20 -19c0 -4 -1 -8 -3 -12c-77 -137 -109 -302 -109 -428c0 -128 31 -291 109 -428c2 -4 3 -8 3 -12c0 -11 -9 -20 -20 -20z" />
    <glyph glyph-name="Japan1.8078" unicode="&#x247b;" 
d="M838 -66c-7 -10 -16 -14 -23 -14c-11 0 -20 9 -20 20c0 4 1 8 3 12c78 137 109 300 109 428c0 126 -32 291 -109 428c-2 4 -3 8 -3 12c0 11 9 19 20 19c7 0 16 -4 23 -13c95 -126 141 -271 141 -446s-44 -318 -141 -446zM644 411c56 -21 146 -98 146 -189
c0 -176 -124 -257 -290 -257c-161 0 -290 72 -290 232c0 96 58 181 136 214c-30 16 -104 66 -104 175c0 131 132 211 263 211c143 0 251 -73 251 -208c0 -93 -54 -159 -112 -178zM185 -80c-7 0 -16 4 -23 14c-97 128 -141 271 -141 446s46 320 141 446c7 9 16 13 23 13
c11 0 20 -8 20 -19c0 -4 -1 -8 -3 -12c-77 -137 -109 -302 -109 -428c0 -128 31 -291 109 -428c2 -4 3 -8 3 -12c0 -11 -9 -20 -20 -20zM543 470c24 8 73 51 73 112c0 81 -42 131 -116 131c-69 0 -120 -42 -120 -96c0 -57 44 -101 163 -147zM448 358
c-29 -2 -94 -49 -94 -143c0 -104 65 -159 145 -159c63 0 142 22 142 122c0 85 -133 152 -193 180z" />
    <glyph glyph-name="Japan1.8079" unicode="&#x247c;" 
d="M838 -66c-7 -10 -16 -14 -23 -14c-11 0 -20 9 -20 20c0 4 1 8 3 12c78 137 109 300 109 428c0 126 -32 291 -109 428c-2 4 -3 8 -3 12c0 11 9 19 20 19c7 0 16 -4 23 -13c95 -126 141 -271 141 -446s-44 -318 -141 -446zM631 297c-56 -41 -109 -57 -178 -57
c-158 0 -236 121 -236 257c0 168 119 302 283 302c218 0 282 -211 282 -389c0 -285 -127 -445 -324 -445c-101 0 -203 50 -203 105c0 28 24 51 50 51c10 0 20 -3 29 -10c23 -17 59 -34 110 -34c111 0 180 80 187 220zM185 -80c-7 0 -16 4 -23 14c-97 128 -141 271 -141 446
s46 320 141 446c7 9 16 13 23 13c11 0 20 -8 20 -19c0 -4 -1 -8 -3 -12c-77 -137 -109 -302 -109 -428c0 -128 31 -291 109 -428c2 -4 3 -8 3 -12c0 -11 -9 -20 -20 -20zM485 345c82 0 138 74 138 190c0 88 -40 178 -124 178c-89 0 -125 -96 -125 -194
c0 -91 44 -174 111 -174z" />
    <glyph glyph-name="Japan1.8080" unicode="&#x247d;" 
d="M838 -66c-7 -10 -16 -14 -23 -14c-11 0 -20 9 -20 20c0 4 1 8 3 12c78 137 109 300 109 428c0 126 -32 291 -109 428c-2 4 -3 8 -3 12c0 11 9 19 20 19c7 0 16 -4 23 -13c95 -126 141 -271 141 -446s-44 -318 -141 -446zM625 -35c-153 0 -183 163 -183 404
c0 256 43 425 185 425c147 0 183 -171 183 -427c0 -243 -36 -402 -185 -402zM270 28v594c0 11 -2 14 -5 14c-2 0 -5 -3 -7 -6c-51 -71 -61 -74 -76 -74c-21 0 -44 19 -44 45c0 12 5 25 17 39c32 35 71 77 102 120c11 15 36 27 60 27c32 0 62 -20 62 -80v-679
c0 -37 -27 -56 -55 -56c-27 0 -54 19 -54 56zM185 -80c-7 0 -16 4 -23 14c-97 128 -141 271 -141 446s46 320 141 446c7 9 16 13 23 13c11 0 20 -8 20 -19c0 -4 -1 -8 -3 -12c-77 -137 -109 -302 -109 -428c0 -128 31 -291 109 -428c2 -4 3 -8 3 -12c0 -11 -9 -20 -20 -20z
M626 53c57 0 58 116 58 314c0 177 0 339 -57 339c-59 0 -59 -183 -59 -338c0 -164 3 -315 58 -315z" />
    <glyph glyph-name="Japan1.8081" unicode="&#x247e;" 
d="M838 -66c-7 -10 -16 -14 -23 -14c-11 0 -20 9 -20 20c0 4 1 8 3 12c78 137 109 300 109 428c0 126 -32 291 -109 428c-2 4 -3 8 -3 12c0 11 9 19 20 19c7 0 16 -4 23 -13c95 -126 141 -271 141 -446s-44 -318 -141 -446zM632 37v585c0 10 -2 14 -5 14s-6 -3 -8 -6
c-57 -70 -60 -74 -79 -74c-22 0 -46 19 -46 45c0 12 5 25 18 39c34 36 74 77 107 120c11 15 38 27 65 27c34 0 67 -20 67 -80v-670c0 -43 -30 -64 -59 -64c-30 0 -60 21 -60 64zM302 37v585c0 10 -2 14 -5 14s-6 -3 -8 -6c-54 -67 -63 -74 -80 -74c-22 0 -46 19 -46 45
c0 12 5 25 18 39c34 36 75 77 108 120c11 15 38 27 65 27c33 0 66 -20 66 -80v-670c0 -43 -29 -64 -59 -64c-29 0 -59 21 -59 64zM185 -80c-7 0 -16 4 -23 14c-97 128 -141 271 -141 446s46 320 141 446c7 9 16 13 23 13c11 0 20 -8 20 -19c0 -4 -1 -8 -3 -12
c-77 -137 -109 -302 -109 -428c0 -128 31 -291 109 -428c2 -4 3 -8 3 -12c0 -11 -9 -20 -20 -20z" />
    <glyph glyph-name="Japan1.8082" unicode="&#x247f;" 
d="M838 -66c-7 -10 -16 -14 -23 -14c-11 0 -20 9 -20 20c0 4 1 8 3 12c78 137 109 300 109 428c0 126 -32 291 -109 428c-2 4 -3 8 -3 12c0 11 9 19 20 19c7 0 16 -4 23 -13c95 -126 141 -271 141 -446s-44 -318 -141 -446zM729 -20h-211c-51 0 -71 27 -71 61
c0 24 9 51 25 76c32 50 83 144 135 234c42 73 70 137 70 217c0 70 -13 125 -56 125c-56 0 -74 -44 -85 -132c-3 -20 -22 -32 -42 -32c-21 0 -43 15 -43 50c0 91 49 216 180 216c100 0 175 -77 175 -226c0 -115 -53 -193 -131 -303c-40 -57 -81 -113 -101 -137
c-4 -4 -5 -8 -5 -12c0 -6 5 -10 11 -10c32 1 36 1 59 2l91 4h4c42 0 64 -32 64 -65c0 -34 -23 -68 -69 -68zM270 28v594c0 11 -2 14 -5 14c-2 0 -5 -3 -7 -6c-51 -71 -61 -74 -76 -74c-21 0 -44 19 -44 45c0 12 5 25 17 39c32 35 71 77 102 120c11 15 37 29 62 29
c31 0 60 -20 60 -82v-679c0 -37 -27 -56 -55 -56c-27 0 -54 19 -54 56zM185 -80c-7 0 -16 4 -23 14c-97 128 -141 271 -141 446s46 320 141 446c7 9 16 13 23 13c11 0 20 -8 20 -19c0 -4 -1 -8 -3 -12c-77 -137 -109 -302 -109 -428c0 -128 31 -291 109 -428
c2 -4 3 -8 3 -12c0 -11 -9 -20 -20 -20z" />
    <glyph glyph-name="Japan1.8083" unicode="&#x2480;" 
d="M838 -66c-7 -10 -16 -14 -23 -14c-11 0 -20 9 -20 20c0 4 1 8 3 12c78 137 109 300 109 428c0 126 -32 291 -109 428c-2 4 -3 8 -3 12c0 11 9 19 20 19c7 0 16 -4 23 -13c95 -126 141 -271 141 -446s-44 -318 -141 -446zM577 457h31c51 0 72 50 72 134
c0 63 -27 105 -71 105c-47 0 -75 -34 -78 -79c-1 -27 -21 -41 -41 -41c-22 0 -44 16 -44 49c0 87 75 169 170 169c103 0 181 -83 181 -199c0 -81 -24 -144 -85 -173c-1 -1 -2 -1 -2 -2s1 -2 2 -2c56 -22 98 -88 98 -193c0 -161 -76 -259 -203 -259c-83 0 -172 60 -172 149
c0 34 24 46 45 46c18 0 35 -8 38 -20c12 -50 53 -66 88 -66c58 0 79 71 79 158c0 86 -28 130 -67 130h-4c-11 -1 -27 -1 -37 -1c-33 0 -50 24 -50 48s17 47 50 47zM278 28v594c0 10 -2 14 -5 14c-2 0 -5 -3 -7 -6c-51 -71 -61 -74 -76 -74c-21 0 -44 19 -44 45
c0 12 5 25 17 39c32 35 71 77 102 120c11 15 37 29 62 29c31 0 60 -20 60 -82v-679c0 -37 -27 -56 -55 -56c-27 0 -54 19 -54 56zM185 -80c-7 0 -16 4 -23 14c-97 128 -141 271 -141 446s46 320 141 446c7 9 16 13 23 13c11 0 20 -8 20 -19c0 -4 -1 -8 -3 -12
c-77 -137 -109 -302 -109 -428c0 -128 31 -291 109 -428c2 -4 3 -8 3 -12c0 -11 -9 -20 -20 -20z" />
    <glyph glyph-name="Japan1.8084" unicode="&#x2481;" 
d="M838 -66c-7 -10 -16 -14 -23 -14c-11 0 -20 9 -20 20c0 4 1 8 3 12c78 137 109 300 109 428c0 126 -32 291 -109 428c-2 4 -3 8 -3 12c0 11 9 19 20 19c7 0 16 -4 23 -13c95 -126 141 -271 141 -446s-44 -318 -141 -446zM775 101h-24v-68c0 -40 -28 -60 -55 -60
c-28 0 -56 20 -56 60v68h-157c-46 0 -61 25 -61 58c0 25 8 54 18 83l182 505c9 25 37 40 65 40c32 0 64 -20 64 -65v-506h22c41 0 62 -29 62 -58s-20 -57 -60 -57zM270 28v594c0 10 -2 14 -5 14c-2 0 -5 -3 -7 -6c-51 -71 -61 -74 -76 -74c-21 0 -44 19 -44 45
c0 12 5 25 17 39c32 35 71 77 102 120c11 15 37 29 62 29c31 0 60 -20 60 -82v-679c0 -37 -27 -56 -55 -56c-27 0 -54 19 -54 56zM185 -80c-7 0 -16 4 -23 14c-97 128 -141 271 -141 446s46 320 141 446c7 9 16 13 23 13c11 0 20 -8 20 -19c0 -4 -1 -8 -3 -12
c-77 -137 -109 -302 -109 -428c0 -128 31 -291 109 -428c2 -4 3 -8 3 -12c0 -11 -9 -20 -20 -20zM639 214v103c0 37 8 168 13 268v3c0 5 -1 7 -2 7c-2 0 -4 -3 -6 -9c-22 -64 -36 -119 -61 -194c-27 -83 -36 -114 -55 -162c-1 -2 -1 -4 -1 -6c0 -5 2 -10 9 -10h103z" />
    <glyph glyph-name="Japan1.8085" unicode="&#x2482;" 
d="M838 -66c-7 -10 -16 -14 -23 -14c-11 0 -20 9 -20 20c0 4 1 8 3 12c78 137 109 300 109 428c0 126 -32 291 -109 428c-2 4 -3 8 -3 12c0 11 9 19 20 19c7 0 16 -4 23 -13c95 -126 141 -271 141 -446s-44 -318 -141 -446zM463 385l20 317c4 64 22 79 68 79h163
c46 0 70 -33 70 -66c0 -31 -23 -63 -69 -63h-140c-9 0 -15 -5 -15 -9l-12 -178c20 22 52 30 76 30c94 0 179 -65 179 -257c0 -184 -97 -271 -205 -271c-109 0 -150 86 -150 128c0 32 23 47 44 47c17 0 33 -9 37 -26c8 -33 33 -53 59 -53c68 0 88 101 88 188
c0 95 -16 162 -72 162c-31 0 -48 -21 -67 -66c-4 -9 -16 -15 -30 -15c-21 0 -44 13 -44 48v5zM270 28v594c0 10 -2 14 -5 14c-2 0 -5 -3 -7 -6c-51 -71 -61 -74 -76 -74c-21 0 -44 19 -44 45c0 12 5 25 17 39c32 35 71 77 102 120c11 15 37 29 62 29c31 0 60 -20 60 -82
v-679c0 -37 -27 -56 -55 -56c-27 0 -54 19 -54 56zM185 -80c-7 0 -16 4 -23 14c-97 128 -141 271 -141 446s46 320 141 446c7 9 16 13 23 13c11 0 20 -8 20 -19c0 -4 -1 -8 -3 -12c-77 -137 -109 -302 -109 -428c0 -128 31 -291 109 -428c2 -4 3 -8 3 -12
c0 -11 -9 -20 -20 -20z" />
    <glyph glyph-name="Japan1.8086" unicode="&#x2483;" 
d="M838 -66c-7 -10 -16 -14 -23 -14c-11 0 -20 9 -20 20c0 4 1 8 3 12c78 137 109 300 109 428c0 126 -32 291 -109 428c-2 4 -3 8 -3 12c0 11 9 19 20 19c7 0 16 -4 23 -13c95 -126 141 -271 141 -446s-44 -318 -141 -446zM555 466c21 28 55 44 92 44
c116 0 159 -130 159 -261c0 -149 -55 -282 -176 -282c-150 0 -186 190 -186 367c0 328 95 459 201 459c107 0 137 -92 137 -112c0 -27 -22 -43 -42 -43c-12 0 -23 6 -29 17c-17 31 -29 48 -61 48c-42 0 -91 -74 -95 -237zM270 28v594c0 10 -2 14 -5 14c-2 0 -5 -3 -7 -6
c-51 -71 -61 -74 -76 -74c-21 0 -44 19 -44 45c0 12 5 25 17 39c32 35 71 77 102 120c11 15 37 29 62 29c31 0 60 -20 60 -82v-679c0 -37 -27 -56 -55 -56c-27 0 -54 19 -54 56zM185 -80c-7 0 -16 4 -23 14c-97 128 -141 271 -141 446s46 320 141 446c7 9 16 13 23 13
c11 0 20 -8 20 -19c0 -4 -1 -8 -3 -12c-77 -137 -109 -302 -109 -428c0 -128 31 -291 109 -428c2 -4 3 -8 3 -12c0 -11 -9 -20 -20 -20zM631 51c58 0 58 106 58 202c0 88 -8 179 -61 179c-52 0 -72 -98 -72 -197c0 -81 12 -184 75 -184z" />
    <glyph glyph-name="Japan1.8087" unicode="&#x2484;" 
d="M838 -66c-7 -10 -16 -14 -23 -14c-11 0 -20 9 -20 20c0 4 1 8 3 12c78 137 109 300 109 428c0 126 -32 291 -109 428c-2 4 -3 8 -3 12c0 11 9 19 20 19c7 0 16 -4 23 -13c95 -126 141 -271 141 -446s-44 -318 -141 -446zM680 624h-147c-54 0 -80 34 -80 68
c0 35 27 70 77 70h193c68 0 92 -30 92 -79c0 -33 -11 -74 -27 -119c-60 -171 -105 -354 -185 -581c-7 -18 -26 -28 -45 -28c-27 0 -55 18 -55 52c0 9 2 19 6 30c69 180 186 552 186 571c0 10 -5 16 -15 16zM282 11v594c0 10 -2 14 -5 14c-2 0 -5 -3 -7 -6
c-41 -57 -57 -75 -75 -75c-22 0 -45 19 -45 45c0 13 5 26 18 40c32 35 70 77 101 120c11 15 37 29 63 29c30 0 60 -20 60 -82v-679c0 -37 -28 -56 -55 -56c-28 0 -55 19 -55 56zM185 -80c-7 0 -16 4 -23 14c-97 128 -141 271 -141 446s46 320 141 446c7 9 16 13 23 13
c11 0 20 -8 20 -19c0 -4 -1 -8 -3 -12c-77 -137 -109 -302 -109 -428c0 -128 31 -291 109 -428c2 -4 3 -8 3 -12c0 -11 -9 -20 -20 -20z" />
    <glyph glyph-name="Japan1.8088" unicode="&#x2485;" 
d="M838 -66c-7 -10 -16 -14 -23 -14c-11 0 -20 9 -20 20c0 4 1 8 3 12c78 137 109 300 109 428c0 126 -32 291 -109 428c-2 4 -3 8 -3 12c0 11 9 19 20 19c7 0 16 -4 23 -13c95 -126 141 -271 141 -446s-44 -318 -141 -446zM534 406c-20 16 -77 82 -77 181
c0 150 92 207 171 207c92 0 164 -76 164 -206c0 -97 -54 -155 -75 -174c33 -26 97 -104 97 -200c0 -166 -85 -247 -189 -247c-102 0 -188 74 -188 231c0 96 46 178 97 208zM270 28v594c0 10 -2 14 -5 14c-2 0 -5 -3 -7 -6c-51 -71 -61 -74 -76 -74c-21 0 -44 19 -44 45
c0 12 5 25 17 39c32 35 71 77 102 120c11 15 37 29 62 29c31 0 60 -20 60 -82v-679c0 -37 -27 -56 -55 -56c-27 0 -54 19 -54 56zM185 -80c-7 0 -16 4 -23 14c-97 128 -141 271 -141 446s46 320 141 446c7 9 16 13 23 13c11 0 20 -8 20 -19c0 -4 -1 -8 -3 -12
c-77 -137 -109 -302 -109 -428c0 -128 31 -291 109 -428c2 -4 3 -8 3 -12c0 -11 -9 -20 -20 -20zM647 464c16 15 48 66 48 127c0 75 -23 125 -70 125c-43 0 -64 -49 -64 -101c0 -83 46 -125 86 -151zM597 362c-20 -3 -54 -55 -54 -150c0 -103 39 -161 81 -161s81 30 81 128
c0 86 -72 157 -108 183z" />
    <glyph glyph-name="Japan1.8089" unicode="&#x2486;" 
d="M838 -66c-7 -10 -16 -14 -23 -14c-11 0 -20 9 -20 20c0 4 1 8 3 12c78 137 109 300 109 428c0 126 -32 291 -109 428c-2 4 -3 8 -3 12c0 11 9 19 20 19c7 0 16 -4 23 -13c95 -126 141 -271 141 -446s-44 -318 -141 -446zM705 305c-22 -38 -57 -58 -104 -58
c-108 0 -160 123 -160 256c0 166 69 292 190 292c153 0 186 -210 186 -385c0 -284 -74 -443 -213 -443c-73 0 -138 61 -138 107c0 27 23 43 44 43c10 0 20 -4 26 -13c12 -17 31 -38 65 -38c57 0 96 59 104 239zM270 28v594c0 10 -2 14 -5 14c-2 0 -5 -3 -7 -6
c-51 -71 -61 -74 -76 -74c-21 0 -44 19 -44 45c0 12 5 25 17 39c32 35 71 77 102 120c11 15 37 29 62 29c31 0 60 -20 60 -82v-679c0 -37 -27 -56 -55 -56c-27 0 -54 19 -54 56zM185 -80c-7 0 -16 4 -23 14c-97 128 -141 271 -141 446s46 320 141 446c7 9 16 13 23 13
c11 0 20 -8 20 -19c0 -4 -1 -8 -3 -12c-77 -137 -109 -302 -109 -428c0 -128 31 -291 109 -428c2 -4 3 -8 3 -12c0 -11 -9 -20 -20 -20zM619 341c53 0 81 77 81 193c0 86 -17 180 -70 180c-55 0 -72 -84 -72 -190c0 -116 20 -183 61 -183z" />
    <glyph glyph-name="Japan1.8090" unicode="&#x2487;" 
d="M838 -66c-7 -10 -16 -14 -23 -14c-11 0 -20 9 -20 20c0 4 1 8 3 12c78 137 109 300 109 428c0 126 -32 291 -109 428c-2 4 -3 8 -3 12c0 11 9 19 20 19c7 0 16 -4 23 -13c95 -126 141 -271 141 -446s-44 -318 -141 -446zM665 -35c-146 0 -156 146 -156 404
c0 253 23 425 158 425c146 0 159 -159 159 -427c0 -269 -23 -402 -161 -402zM413 -20h-175c-36 0 -51 23 -51 56c0 22 7 49 19 77c22 50 64 143 105 238c52 122 55 189 55 251c0 67 -13 99 -45 99c-42 0 -57 -69 -59 -142c-1 -23 -21 -36 -41 -36c-21 0 -43 14 -43 45
c0 72 21 226 154 226c100 0 148 -61 148 -212c0 -95 -17 -160 -104 -318c-31 -57 -61 -109 -80 -140c-2 -4 -3 -8 -3 -11c0 -6 2 -10 8 -10c26 1 22 1 41 2l72 3h3c39 0 60 -33 60 -65s-20 -63 -64 -63zM185 -80c-7 0 -16 4 -23 14c-97 128 -141 271 -141 446
s46 320 141 446c7 9 16 13 23 13c11 0 20 -8 20 -19c0 -4 -1 -8 -3 -12c-77 -137 -109 -302 -109 -428c0 -128 31 -291 109 -428c2 -4 3 -8 3 -12c0 -11 -9 -20 -20 -20zM666 47c44 0 44 129 44 320c0 235 0 350 -43 350s-43 -110 -43 -349v-118c0 -116 4 -203 42 -203z" />
    <glyph glyph-name="Japan1.8091" unicode="&#x3251;" 
d="M980 380c0 -265 -215 -480 -480 -480s-480 215 -480 480s215 480 480 480s480 -215 480 -480zM922 379c0 233 -189 422 -422 422s-422 -189 -422 -422s189 -421 422 -421s422 188 422 421zM664 133v405c0 9 -2 13 -5 13c-2 0 -5 -2 -7 -4c-25 -26 -68 -56 -83 -56
c-20 0 -36 20 -36 40c0 12 5 25 19 34c37 26 74 62 109 94c13 12 32 19 50 19c29 0 56 -19 56 -65v-480c0 -36 -26 -54 -51 -54c-26 0 -52 18 -52 54zM471 85h-208c-27 0 -51 24 -51 55c0 12 4 26 14 40c159 218 176 243 176 335c0 61 -22 85 -54 85c-41 0 -62 -52 -73 -96
c-4 -16 -19 -25 -35 -25c-18 0 -37 13 -37 37c0 41 48 165 163 165c96 0 151 -57 151 -166c0 -97 -35 -154 -205 -324v-2s1 -4 5 -4c29 1 46 2 64 2h90c29 0 43 -25 43 -51c0 -25 -14 -51 -43 -51z" />
    <glyph glyph-name="Japan1.8092" unicode="&#x2170;" 
d="M500 613c-52 0 -98 44 -98 99c0 52 46 97 98 97s98 -45 98 -97c0 -55 -46 -99 -98 -99zM419 7v453c0 55 40 83 80 83c41 0 82 -29 82 -83v-453c0 -54 -40 -80 -80 -80c-41 0 -82 27 -82 80z" />
    <glyph glyph-name="Japan1.8093" unicode="&#x2171;" 
d="M658 615c-52 0 -97 43 -97 97c0 52 45 96 97 96s96 -44 96 -96c0 -54 -44 -97 -96 -97zM439 712c0 -54 -45 -97 -97 -97s-96 43 -96 97c0 52 44 96 96 96s97 -44 97 -96zM579 7v453c0 55 39 83 78 83c40 0 80 -29 80 -83v-453c0 -54 -39 -80 -78 -80c-40 0 -80 27 -80 80
zM263 7v453c0 55 39 83 78 83c40 0 80 -29 80 -83v-453c0 -54 -39 -80 -78 -80c-40 0 -80 27 -80 80z" />
    <glyph glyph-name="Japan1.8094" unicode="&#x2172;" 
d="M752 616c-51 0 -95 43 -95 96c0 51 44 95 95 95s94 -44 94 -95c0 -53 -43 -96 -94 -96zM498 616c-51 0 -94 43 -94 96c0 51 43 95 94 95s95 -44 95 -95c0 -53 -44 -96 -95 -96zM676 7v453c0 55 38 83 76 83c39 0 78 -29 78 -83v-453c0 -54 -38 -80 -76 -80
c-39 0 -78 27 -78 80zM248 616c-51 0 -94 43 -94 96c0 51 43 95 94 95s95 -44 95 -95c0 -53 -44 -96 -95 -96zM421 7v453c0 55 38 83 76 83c39 0 78 -29 78 -83v-453c0 -54 -38 -80 -76 -80c-39 0 -78 27 -78 80zM169 7v453c0 55 38 83 76 83c39 0 78 -29 78 -83v-453
c0 -54 -38 -80 -76 -80c-39 0 -78 27 -78 80z" />
    <glyph glyph-name="Japan1.8095" unicode="&#x2173;" 
d="M373 712c0 -54 -45 -97 -97 -97s-96 43 -96 97c0 52 44 96 96 96s97 -44 97 -96zM571 -11l-174 446c-5 12 -7 23 -7 33c0 46 40 75 80 75c30 0 60 -16 73 -54l127 -360c3 -8 7 -12 12 -12c6 0 11 5 14 14l109 379c6 22 27 32 48 32c29 0 59 -18 59 -50
c0 -5 -1 -11 -3 -18l-157 -482c-14 -43 -51 -64 -89 -64s-76 21 -92 61zM199 7v453c0 55 38 83 76 83c39 0 78 -29 78 -83v-453c0 -54 -38 -80 -76 -80c-39 0 -78 27 -78 80z" />
    <glyph glyph-name="Japan1.8096" unicode="&#x2174;" 
d="M417 -12l-200 443c-5 10 -7 21 -7 30c0 46 47 81 92 81c28 0 56 -14 71 -49l153 -363c3 -8 8 -12 14 -12s12 5 15 14l126 380c7 21 27 31 48 31c30 0 61 -19 61 -49c0 -6 -1 -12 -3 -18l-179 -485c-16 -43 -54 -63 -94 -63c-39 0 -79 20 -97 60z" />
    <glyph glyph-name="Japan1.8097" unicode="&#x2175;" 
d="M726 615c-52 0 -97 43 -97 97c0 52 45 96 97 96s96 -44 96 -96c0 -54 -44 -97 -96 -97zM649 7v453c0 55 38 83 76 83c39 0 78 -29 78 -83v-453c0 -54 -38 -80 -76 -80c-39 0 -78 27 -78 80zM274 -11l-175 446c-5 12 -7 23 -7 33c0 46 41 75 81 75c30 0 60 -16 73 -54
l127 -360c3 -8 7 -12 12 -12c6 0 11 5 14 14l109 379c6 22 27 32 48 32c29 0 59 -18 59 -50c0 -5 -1 -11 -3 -18l-158 -482c-14 -43 -51 -64 -89 -64c-37 0 -75 21 -91 61z" />
    <glyph glyph-name="Japan1.8098" unicode="&#x2176;" 
d="M840 623c-47 0 -88 39 -88 89c0 47 41 88 88 88s88 -41 88 -88c0 -50 -41 -89 -88 -89zM625 623c-47 0 -88 39 -88 89c0 47 41 88 88 88s88 -41 88 -88c0 -50 -41 -89 -88 -89zM771 0v466c0 51 35 75 70 75s71 -25 71 -75v-466c0 -48 -35 -72 -70 -72s-71 24 -71 72z
M556 0v466c0 51 35 75 70 75s71 -25 71 -75v-466c0 -48 -35 -72 -70 -72s-71 24 -71 72zM218 -10l-166 444c-4 12 -6 22 -6 32c0 47 43 75 84 75c28 0 55 -14 65 -44l117 -364c3 -8 7 -13 11 -13s8 5 11 15l97 375c6 22 26 32 46 32c27 0 55 -17 55 -47c0 -5 0 -10 -2 -16
l-142 -486c-13 -43 -48 -65 -83 -65c-36 0 -72 21 -87 62z" />
    <glyph glyph-name="Japan1.8099" unicode="&#x2177;" 
d="M880 629c-43 0 -80 37 -80 82c0 43 37 81 80 81s81 -38 81 -81c0 -45 -38 -82 -81 -82zM706 629c-43 0 -80 37 -80 82c0 43 37 81 80 81s81 -38 81 -81c0 -45 -38 -82 -81 -82zM534 629c-43 0 -80 37 -80 82c0 43 37 81 80 81s81 -38 81 -81c0 -45 -38 -82 -81 -82z
M821 -2v479c0 43 30 64 61 64s62 -22 62 -64v-479c0 -47 -30 -71 -61 -71s-62 24 -62 71zM647 -2v479c0 43 30 64 61 64s62 -22 62 -64v-479c0 -47 -30 -71 -61 -71s-62 24 -62 71zM475 -1v478c0 43 30 64 61 64s62 -22 62 -64v-478c0 -48 -30 -72 -61 -72s-62 24 -62 72z
M183 -10l-147 447c-4 14 -6 26 -6 37c0 45 34 67 68 67c28 0 54 -14 62 -41l104 -367c2 -8 6 -13 9 -13c4 0 7 5 9 15l86 375c5 20 23 31 42 31c22 0 45 -14 45 -44c0 -6 -1 -12 -3 -19l-123 -485c-11 -43 -41 -65 -72 -65c-30 0 -61 21 -74 62z" />
    <glyph glyph-name="Japan1.8100" unicode="&#x2178;" 
d="M355 712c0 -54 -45 -97 -97 -97s-96 43 -96 97c0 52 44 96 96 96s97 -44 97 -96zM752 -49l-143 204l-147 -206c-10 -15 -25 -21 -39 -21c-26 0 -52 21 -52 50c0 12 4 26 15 40l160 213l-140 192c-11 15 -16 30 -16 45c0 41 37 76 75 76c20 0 41 -10 57 -33l118 -165
l120 173c11 17 27 23 42 23c27 0 54 -23 54 -51c0 -11 -4 -22 -12 -33l-140 -189l150 -193c20 -25 27 -48 27 -69c0 -48 -43 -79 -82 -79c-18 0 -36 7 -47 23zM181 7v453c0 55 38 83 76 83c39 0 78 -29 78 -83v-453c0 -54 -38 -80 -76 -80c-39 0 -78 27 -78 80z" />
    <glyph glyph-name="Japan1.8101" unicode="&#x2179;" 
d="M656 -46l-171 202l-177 -206c-13 -15 -29 -22 -45 -22c-29 0 -56 23 -56 53c0 13 5 28 19 43l185 205l-166 192c-14 16 -19 32 -19 48c0 40 37 74 80 74c23 0 47 -10 68 -34l139 -164l148 174c14 17 30 23 46 23c30 0 56 -24 56 -53c0 -13 -4 -26 -15 -38l-159 -182
l179 -190c18 -19 26 -40 26 -60c0 -48 -44 -90 -87 -90c-18 0 -36 8 -51 25z" />
    <glyph glyph-name="Japan1.8102" unicode="&#x3252;" 
d="M980 380c0 -265 -215 -480 -480 -480s-480 215 -480 480s215 480 480 480s480 -215 480 -480zM922 379c0 233 -189 422 -422 422s-422 -189 -422 -422s189 -421 422 -421s422 188 422 421zM769 85h-207c-27 0 -52 24 -52 55c0 13 4 26 14 40c159 218 176 243 176 335
c0 61 -22 85 -54 85c-41 0 -61 -52 -72 -96c-4 -16 -19 -25 -35 -25c-18 0 -37 13 -37 37c0 45 49 165 162 165c96 0 152 -57 152 -166c0 -102 -41 -159 -206 -324v-2s1 -4 5 -4c29 1 46 2 64 2h90c29 0 43 -25 43 -51c0 -25 -14 -51 -43 -51zM436 85h-208
c-27 0 -51 24 -51 55c0 12 4 26 14 40c159 218 176 243 176 335c0 61 -22 85 -54 85c-41 0 -62 -52 -73 -96c-4 -16 -19 -25 -35 -25c-18 0 -37 13 -37 37c0 41 48 165 163 165c96 0 151 -57 151 -166c0 -97 -35 -154 -205 -324v-2s1 -4 5 -4c29 1 46 2 64 2h90
c29 0 43 -25 43 -51c0 -25 -14 -51 -43 -51z" />
    <glyph glyph-name="Japan1.8103" unicode="&#x3253;" 
d="M980 380c0 -265 -215 -480 -480 -480s-480 215 -480 480s215 480 480 480s480 -215 480 -480zM922 379c0 233 -189 422 -422 422s-422 -189 -422 -422s189 -421 422 -421s422 188 422 421zM613 437h23c46 0 72 33 72 98c0 48 -23 75 -55 75c-33 0 -57 -19 -74 -62
c-7 -18 -19 -25 -31 -25c-18 0 -36 17 -36 37c0 12 26 121 163 121c82 0 142 -65 142 -145c0 -47 -23 -103 -83 -126c64 -12 108 -73 108 -144c0 -125 -81 -192 -191 -192c-94 0 -158 73 -158 111c0 24 23 37 43 37c10 0 19 -3 23 -11c24 -44 61 -58 92 -58
c52 0 79 45 79 111c0 59 -44 99 -87 99c-11 0 -20 -1 -31 -1c-22 0 -32 18 -32 36c0 19 11 39 33 39zM436 85h-208c-27 0 -51 24 -51 55c0 12 4 26 14 40c159 218 176 243 176 335c0 61 -22 85 -54 85c-41 0 -62 -52 -73 -96c-4 -16 -19 -25 -35 -25c-18 0 -37 13 -37 37
c0 41 48 165 163 165c96 0 151 -57 151 -166c0 -97 -35 -154 -205 -324v-2s1 -4 5 -4c29 1 46 2 64 2h90c29 0 43 -25 43 -51c0 -25 -14 -51 -43 -51z" />
    <glyph glyph-name="Japan1.8104" unicode="&#x3254;" 
d="M980 380c0 -265 -215 -480 -480 -480s-480 215 -480 480s215 480 480 480s480 -215 480 -480zM922 379c0 233 -189 422 -422 422s-422 -189 -422 -422s189 -421 422 -421s422 188 422 421zM818 182h-27v-47c0 -37 -25 -55 -49 -55c-25 0 -50 18 -50 55v47h-157
c-24 0 -47 20 -47 54c0 14 4 31 13 50l170 359c11 23 38 36 64 36c29 0 56 -17 56 -55v-357h25c26 0 38 -22 38 -44c0 -21 -12 -43 -36 -43zM436 85h-208c-27 0 -51 24 -51 55c0 12 4 26 14 40c159 218 176 243 176 335c0 61 -22 85 -54 85c-41 0 -62 -52 -73 -96
c-4 -16 -19 -25 -35 -25c-18 0 -37 13 -37 37c0 41 48 165 163 165c96 0 151 -57 151 -166c0 -97 -35 -154 -205 -324v-2s1 -4 5 -4c29 1 46 2 64 2h90c29 0 43 -25 43 -51c0 -25 -14 -51 -43 -51zM691 266v76c0 28 3 96 8 163v5c0 8 -1 13 -3 13s-4 -4 -7 -12
c-8 -24 -19 -59 -39 -101c0 0 -49 -103 -55 -117c-2 -4 -5 -11 -5 -16c0 -6 4 -11 17 -11h84z" />
    <glyph glyph-name="Japan1.8105" unicode="&#x3255;" 
d="M980 380c0 -265 -215 -480 -480 -480s-480 215 -480 480s215 480 480 480s480 -215 480 -480zM922 379c0 233 -189 422 -422 422s-422 -189 -422 -422s189 -421 422 -421s422 188 422 421zM757 571h-137c-8 0 -9 -5 -10 -12l-12 -111c31 19 60 20 77 20
c85 0 161 -62 161 -195c0 -113 -74 -198 -179 -198c-90 0 -150 67 -150 98c0 22 19 38 38 38c11 0 22 -5 29 -16c21 -30 49 -39 73 -39c45 0 77 50 77 128c0 67 -30 115 -70 115c-29 0 -52 -9 -74 -41c-5 -7 -15 -11 -26 -11c-17 0 -35 9 -35 31v4l22 229c3 35 9 58 57 58
h159c29 0 45 -25 45 -50c0 -24 -15 -48 -45 -48zM436 85h-208c-27 0 -51 24 -51 55c0 12 4 26 14 40c159 218 176 243 176 335c0 61 -22 85 -54 85c-41 0 -62 -52 -73 -96c-4 -16 -19 -25 -35 -25c-18 0 -37 13 -37 37c0 41 48 165 163 165c96 0 151 -57 151 -166
c0 -97 -35 -154 -205 -324v-2s1 -4 5 -4c29 1 46 2 64 2h90c29 0 43 -25 43 -51c0 -25 -14 -51 -43 -51z" />
    <glyph glyph-name="Japan1.8106" unicode="&#x3256;" 
d="M980 380c0 -265 -215 -480 -480 -480s-480 215 -480 480s215 480 480 480s480 -215 480 -480zM922 379c0 233 -189 422 -422 422s-422 -189 -422 -422s189 -421 422 -421s422 188 422 421zM610 419c11 42 54 59 90 59c86 0 130 -92 130 -186c0 -128 -54 -219 -160 -219
c-130 0 -164 142 -164 285c0 182 51 321 184 321c85 0 116 -40 116 -64c0 -18 -15 -34 -32 -34c-6 0 -12 2 -18 6c-13 9 -26 20 -53 20c-63 0 -85 -60 -93 -188zM436 85h-208c-27 0 -51 24 -51 55c0 12 4 26 14 40c159 218 176 243 176 335c0 61 -22 85 -54 85
c-41 0 -62 -52 -73 -96c-4 -16 -19 -25 -35 -25c-18 0 -37 13 -37 37c0 41 48 165 163 165c96 0 151 -57 151 -166c0 -97 -35 -154 -205 -324v-2s1 -4 5 -4c29 1 46 2 64 2h89c29 0 43 -26 43 -52c0 -25 -14 -50 -42 -50zM671 139c33 0 53 59 53 133c0 68 -14 132 -49 132
c-41 0 -53 -54 -53 -144c0 -64 8 -121 49 -121z" />
    <glyph glyph-name="Japan1.8107" unicode="&#x3257;" 
d="M980 380c0 -265 -215 -480 -480 -480s-480 215 -480 480s215 480 480 480s480 -215 480 -480zM922 379c0 233 -189 422 -422 422s-422 -189 -422 -422s189 -421 422 -421s422 188 422 421zM718 553h-153c-34 0 -52 28 -52 55s17 54 52 54h208c33 0 63 -21 63 -64
c0 -15 -3 -32 -12 -52c-51 -122 -111 -283 -178 -454c-6 -16 -22 -24 -39 -24c-22 0 -44 14 -44 41c0 7 1 14 4 22c61 161 160 404 160 404c1 3 2 6 2 8c0 8 -6 10 -11 10zM451 80h-208c-27 0 -51 24 -51 55c0 12 4 26 14 40c159 218 176 243 176 335c0 61 -22 85 -54 85
c-41 0 -62 -52 -73 -96c-4 -16 -19 -25 -35 -25c-18 0 -37 13 -37 37c0 41 48 165 163 165c96 0 151 -57 151 -166c0 -97 -35 -154 -205 -324v-2s1 -4 5 -4c29 1 46 2 64 2h90c29 0 43 -25 43 -51c0 -25 -14 -51 -43 -51z" />
    <glyph glyph-name="Japan1.8108" unicode="&#x3258;" 
d="M980 380c0 -265 -215 -480 -480 -480s-480 215 -480 480s215 480 480 480s480 -215 480 -480zM922 379c0 233 -189 422 -422 422s-422 -189 -422 -422s189 -421 422 -421s422 188 422 421zM751 399c38 -21 85 -69 85 -145c0 -120 -77 -181 -165 -181
c-83 0 -170 53 -170 169c0 66 32 128 86 155c-24 15 -73 53 -73 131c0 96 71 152 154 152c84 0 154 -52 154 -150c0 -74 -36 -111 -71 -131zM436 85h-208c-27 0 -51 24 -51 55c0 12 4 26 14 40c159 218 176 243 176 335c0 61 -22 85 -54 85c-41 0 -62 -52 -73 -96
c-4 -16 -19 -25 -35 -25c-18 0 -37 13 -37 37c0 41 48 165 163 165c96 0 151 -57 151 -166c0 -97 -35 -154 -205 -324v-2s1 -4 5 -4c29 1 46 2 64 2h89c29 0 43 -26 43 -52c0 -25 -14 -50 -42 -50zM688 443c15 12 37 37 37 84c0 51 -18 97 -62 97c-31 0 -54 -35 -54 -75
c0 -62 51 -92 79 -106zM648 360c-17 -1 -51 -33 -51 -107s32 -116 71 -116c30 0 69 18 69 92c0 84 -80 126 -89 131z" />
    <glyph glyph-name="Japan1.8109" unicode="&#x3259;" 
d="M980 380c0 -265 -215 -480 -480 -480s-480 215 -480 480s215 480 480 480s480 -215 480 -480zM922 379c0 233 -189 422 -422 422s-422 -189 -422 -422s189 -421 422 -421s422 188 422 421zM727 332c-12 -34 -57 -55 -90 -55c-89 0 -127 87 -127 187c0 131 55 216 157 216
c131 0 163 -145 163 -281c0 -206 -54 -326 -180 -326c-66 0 -119 38 -119 67c0 20 17 37 34 37c5 0 10 -1 14 -5c16 -13 39 -25 61 -25c67 0 82 69 87 185zM436 85h-208c-27 0 -51 24 -51 55c0 12 4 26 14 40c159 218 176 243 176 335c0 61 -22 85 -54 85
c-41 0 -62 -52 -73 -96c-4 -16 -19 -25 -35 -25c-18 0 -37 13 -37 37c0 41 48 165 163 165c96 0 151 -57 151 -166c0 -97 -35 -154 -205 -324v-2s1 -4 5 -4c29 1 46 2 64 2h90c29 0 43 -25 43 -51c0 -25 -14 -51 -43 -51zM662 355c41 0 56 49 56 136c0 61 -14 129 -52 129
c-40 0 -52 -69 -52 -140c0 -74 12 -125 48 -125z" />
    <glyph glyph-name="Japan1.8110" unicode="&#x325a;" 
d="M980 380c0 -265 -215 -480 -480 -480s-480 215 -480 480s215 480 480 480s480 -215 480 -480zM922 379c0 233 -189 422 -422 422s-422 -189 -422 -422s189 -421 422 -421s422 188 422 421zM680 73c-116 0 -150 108 -150 295s39 311 153 311c115 0 151 -125 151 -312
s-35 -294 -154 -294zM276 437h23c46 0 73 33 73 98c0 54 -21 76 -58 76c-26 0 -56 -19 -72 -62c-7 -17 -20 -25 -33 -25c-17 0 -33 13 -33 33c0 27 40 124 159 124c84 0 145 -67 145 -145c0 -47 -21 -109 -83 -128c69 -18 108 -74 108 -145c0 -125 -81 -189 -191 -189
c-72 0 -157 63 -157 112c0 23 21 37 39 37c10 0 18 -4 23 -12c27 -50 64 -58 95 -58c50 0 78 48 78 111c0 59 -43 99 -86 99c-11 0 -20 -1 -31 -1c-23 0 -34 19 -34 38c0 18 11 37 35 37zM682 138c45 0 45 111 45 229c0 105 0 245 -44 245c-43 0 -45 -118 -45 -219
c0 -175 2 -255 44 -255z" />
    <glyph glyph-name="Japan1.8111" unicode="&#x325b;" 
d="M980 380c0 -265 -215 -480 -480 -480s-480 215 -480 480s215 480 480 480s480 -215 480 -480zM922 379c0 233 -189 422 -422 422s-422 -189 -422 -422s189 -421 422 -421s422 188 422 421zM664 133v405c0 9 -2 13 -5 13c-2 0 -5 -2 -7 -4c-25 -26 -68 -56 -83 -56
c-20 0 -36 20 -36 40c0 12 5 25 19 34c37 26 74 62 109 94c13 12 32 19 50 19c29 0 56 -19 56 -65v-480c0 -36 -26 -54 -51 -54c-26 0 -52 18 -52 54zM302 437h22c46 0 74 33 74 98c0 54 -21 76 -58 76c-26 0 -57 -19 -73 -62c-7 -17 -20 -25 -33 -25c-17 0 -33 13 -33 33
c0 14 30 124 160 124c84 0 144 -67 144 -145c0 -47 -20 -109 -82 -128c69 -18 107 -74 107 -145c0 -125 -80 -189 -190 -189c-72 0 -157 63 -157 112c0 23 21 37 39 37c10 0 18 -4 23 -12c27 -50 63 -58 94 -58c50 0 79 48 79 111c0 59 -43 99 -86 99c-11 0 -20 -1 -31 -1
c-23 0 -34 19 -34 38c0 18 11 37 35 37z" />
    <glyph glyph-name="Japan1.8112" unicode="&#x249c;" 
d="M838 -66c-7 -10 -16 -14 -23 -14c-11 0 -20 9 -20 20c0 4 1 8 3 12c78 137 109 300 109 428c0 126 -32 291 -109 428c-2 4 -3 8 -3 12c0 11 9 19 20 19c7 0 16 -4 23 -13c95 -126 141 -271 141 -446s-44 -318 -141 -446zM695 463v-230c0 -38 15 -48 28 -48c3 0 6 0 8 1
c3 1 7 2 10 2c20 0 36 -19 36 -39c0 -47 -83 -63 -114 -63c-59 0 -80 32 -88 59c-39 -39 -99 -60 -161 -60c-101 0 -159 60 -159 153c0 91 52 153 124 180c61 23 121 25 185 41c0 83 -30 113 -94 113c-29 0 -73 -11 -112 -53c-11 -12 -24 -17 -36 -17c-23 0 -43 18 -43 43
c0 60 112 121 215 121c124 0 201 -68 201 -203zM185 -80c-7 0 -16 4 -23 14c-97 128 -141 271 -141 446s46 320 141 446c7 9 16 13 23 13c11 0 20 -8 20 -19c0 -4 -1 -8 -3 -12c-77 -137 -109 -302 -109 -428c0 -128 31 -291 109 -428c2 -4 3 -8 3 -12c0 -11 -9 -20 -20 -20
zM561 242v131c-135 -17 -169 -53 -169 -109c0 -64 27 -85 75 -85c44 0 94 38 94 63z" />
    <glyph glyph-name="Japan1.8113" unicode="&#x249d;" 
d="M838 -66c-7 -10 -16 -14 -23 -14c-11 0 -20 9 -20 20c0 4 1 8 3 12c78 137 109 300 109 428c0 126 -32 291 -109 428c-2 4 -3 8 -3 12c0 11 9 19 20 19c7 0 16 -4 23 -13c95 -126 141 -271 141 -446s-44 -318 -141 -446zM407 7v-1c0 -37 -32 -58 -65 -58
c-34 0 -68 23 -68 76v725c0 42 33 63 66 63s67 -21 67 -63v-292c25 37 93 73 142 73c194 0 240 -144 240 -286c0 -155 -79 -295 -248 -295c-67 0 -118 31 -134 58zM185 -80c-7 0 -16 4 -23 14c-97 128 -141 271 -141 446s46 320 141 446c7 9 16 13 23 13c11 0 20 -8 20 -19
c0 -4 -1 -8 -3 -12c-77 -137 -109 -302 -109 -428c0 -128 31 -291 109 -428c2 -4 3 -8 3 -12c0 -11 -9 -20 -20 -20zM529 36c85 0 117 111 117 208c0 89 -26 195 -118 195c-64 0 -121 -65 -121 -202c0 -85 21 -201 122 -201z" />
    <glyph glyph-name="Japan1.8114" unicode="&#x249e;" 
d="M838 -66c-7 -10 -16 -14 -23 -14c-11 0 -20 9 -20 20c0 4 1 8 3 12c78 137 109 300 109 428c0 126 -32 291 -109 428c-2 4 -3 8 -3 12c0 11 9 19 20 19c7 0 16 -4 23 -13c95 -126 141 -271 141 -446s-44 -318 -141 -446zM741 201c0 -53 -103 -116 -198 -116
c-184 0 -296 119 -296 284c0 184 125 298 299 298c107 0 187 -70 187 -113c0 -28 -26 -46 -50 -46c-11 0 -23 4 -30 14c-31 40 -72 49 -103 49c-97 0 -154 -88 -154 -193c0 -139 72 -198 156 -198c38 0 81 17 116 56c7 8 17 12 26 12c23 0 47 -20 47 -47zM185 -80
c-7 0 -16 4 -23 14c-97 128 -141 271 -141 446s46 320 141 446c7 9 16 13 23 13c11 0 20 -8 20 -19c0 -4 -1 -8 -3 -12c-77 -137 -109 -302 -109 -428c0 -128 31 -291 109 -428c2 -4 3 -8 3 -12c0 -11 -9 -20 -20 -20z" />
    <glyph glyph-name="Japan1.8115" unicode="&#x249f;" 
d="M838 -66c-7 -10 -16 -14 -23 -14c-11 0 -20 9 -20 20c0 4 1 8 3 12c78 137 109 300 109 428c0 126 -32 291 -109 428c-2 4 -3 8 -3 12c0 11 9 19 20 19c7 0 16 -4 23 -13c95 -126 141 -271 141 -446s-44 -318 -141 -446zM597 462v280c0 45 33 67 67 67
c33 0 67 -22 67 -67v-727c0 -49 -37 -74 -71 -74c-32 0 -63 21 -63 62c-24 -25 -84 -58 -143 -58c-197 0 -253 143 -253 299c0 137 80 282 244 282c73 0 128 -28 152 -64zM185 -80c-7 0 -16 4 -23 14c-97 128 -141 271 -141 446s46 320 141 446c7 9 16 13 23 13
c11 0 20 -8 20 -19c0 -4 -1 -8 -3 -12c-77 -137 -109 -302 -109 -428c0 -128 31 -291 109 -428c2 -4 3 -8 3 -12c0 -11 -9 -20 -20 -20zM470 31c21 0 124 7 124 215c0 37 -3 74 -10 97c-15 48 -51 92 -113 92c-86 0 -127 -100 -127 -195c0 -111 21 -209 126 -209z" />
    <glyph glyph-name="Japan1.8116" unicode="&#x24a0;" 
d="M838 -66c-7 -10 -16 -14 -23 -14c-11 0 -20 9 -20 20c0 4 1 8 3 12c78 137 109 300 109 428c0 126 -32 291 -109 428c-2 4 -3 8 -3 12c0 11 9 19 20 19c7 0 16 -4 23 -13c95 -126 141 -271 141 -446s-44 -318 -141 -446zM690 344h-302c4 -100 46 -164 135 -164
c47 0 100 21 133 62c9 11 22 16 34 16c22 0 44 -17 44 -43c0 -38 -74 -130 -216 -130c-171 0 -268 108 -268 291c0 171 100 290 255 290c123 0 232 -86 232 -261c0 -54 -39 -61 -47 -61zM185 -80c-7 0 -16 4 -23 14c-97 128 -141 271 -141 446s46 320 141 446
c7 9 16 13 23 13c11 0 20 -8 20 -19c0 -4 -1 -8 -3 -12c-77 -137 -109 -302 -109 -428c0 -128 31 -291 109 -428c2 -4 3 -8 3 -12c0 -11 -9 -20 -20 -20zM387 424h194c8 0 18 4 18 15v4c0 86 -37 138 -96 138c-76 0 -116 -65 -116 -154v-3z" />
    <glyph glyph-name="Japan1.8117" unicode="&#x24a1;" 
d="M838 -66c-7 -10 -16 -14 -23 -14c-11 0 -20 9 -20 20c0 4 1 8 3 12c78 137 109 300 109 428c0 126 -32 291 -109 428c-2 4 -3 8 -3 12c0 11 9 19 20 19c7 0 16 -4 23 -13c95 -126 141 -271 141 -446s-44 -318 -141 -446zM413 -2v418h-55c-32 0 -47 23 -47 46
c0 24 16 49 46 49h56v28c0 103 16 238 161 255c6 1 13 1 19 1c75 0 88 -32 88 -51c0 -24 -17 -46 -43 -46c-4 0 -9 0 -14 2s-10 2 -15 2c-44 0 -64 -39 -64 -156v-35h79c30 0 45 -23 45 -46c0 -24 -16 -49 -46 -49h-78v-418c0 -40 -33 -60 -66 -60s-66 20 -66 60zM185 -80
c-7 0 -16 4 -23 14c-97 128 -141 271 -141 446s46 320 141 446c7 9 16 13 23 13c11 0 20 -8 20 -19c0 -4 -1 -8 -3 -12c-77 -137 -109 -302 -109 -428c0 -128 31 -291 109 -428c2 -4 3 -8 3 -12c0 -11 -9 -20 -20 -20z" />
    <glyph glyph-name="Japan1.8118" unicode="&#x24a2;" 
d="M838 -66c-7 -10 -16 -14 -23 -14c-11 0 -20 9 -20 20c0 4 1 8 3 12c78 137 109 300 109 428c0 126 -32 291 -109 428c-2 4 -3 8 -3 12c0 11 9 19 20 19c7 0 16 -4 23 -13c95 -126 141 -271 141 -446s-44 -318 -141 -446zM425 375c-22 -13 -25 -24 -25 -34
c0 -23 19 -22 68 -25c218 -12 280 -63 280 -177c0 -121 -113 -190 -265 -190c-140 0 -239 60 -239 153c0 57 39 102 70 118c-20 15 -38 43 -38 78c0 37 37 81 61 98c-44 28 -81 79 -81 171c0 120 109 195 223 195c45 0 83 -10 108 -22c21 25 59 62 105 62
c47 0 70 -35 70 -68c0 -43 -18 -69 -62 -69c-15 0 -26 14 -35 24c-5 6 -7 6 -18 6h-3c34 -44 47 -101 47 -134c0 -134 -108 -190 -229 -191c-7 0 -28 3 -37 5zM185 -80c-7 0 -16 4 -23 14c-97 128 -141 271 -141 446s46 320 141 446c7 9 16 13 23 13c11 0 20 -8 20 -19
c0 -4 -1 -8 -3 -12c-77 -137 -109 -302 -109 -428c0 -128 31 -291 109 -428c2 -4 3 -8 3 -12c0 -11 -9 -20 -20 -20zM472 446c59 0 90 50 90 117c0 73 -21 124 -84 124c-53 0 -93 -41 -93 -123c0 -69 30 -118 87 -118zM404 203c-39 -15 -63 -57 -63 -93
c0 -53 61 -78 127 -78c70 0 140 19 140 74c0 64 -28 96 -204 97z" />
    <glyph glyph-name="Japan1.8119" unicode="&#x24a3;" 
d="M838 -66c-7 -10 -16 -14 -23 -14c-11 0 -20 9 -20 20c0 4 1 8 3 12c78 137 109 300 109 428c0 126 -32 291 -109 428c-2 4 -3 8 -3 12c0 11 9 19 20 19c7 0 16 -4 23 -13c95 -126 141 -271 141 -446s-44 -318 -141 -446zM611 25v262c0 103 -14 153 -87 153
c-44 0 -111 -43 -111 -127v-287c0 -45 -34 -68 -68 -68s-68 23 -68 68v716c0 47 34 71 68 71s68 -24 68 -71v-263c32 32 88 54 141 54c134 0 195 -91 195 -216v-292c0 -46 -35 -69 -70 -69c-34 0 -68 22 -68 69zM185 -80c-7 0 -16 4 -23 14c-97 128 -141 271 -141 446
s46 320 141 446c7 9 16 13 23 13c11 0 20 -8 20 -19c0 -4 -1 -8 -3 -12c-77 -137 -109 -302 -109 -428c0 -128 31 -291 109 -428c2 -4 3 -8 3 -12c0 -11 -9 -20 -20 -20z" />
    <glyph glyph-name="Japan1.8120" unicode="&#x24a4;" 
d="M838 -66c-7 -10 -16 -14 -23 -14c-11 0 -20 9 -20 20c0 4 1 8 3 12c78 137 109 300 109 428c0 126 -32 291 -109 428c-2 4 -3 8 -3 12c0 11 9 19 20 19c7 0 16 -4 23 -13c95 -126 141 -271 141 -446s-44 -318 -141 -446zM591 696c0 -50 -41 -90 -91 -90s-91 40 -91 90
s41 91 91 91s91 -41 91 -91zM425 34v432c0 50 37 74 74 74c38 0 76 -25 76 -74v-432c0 -50 -37 -74 -74 -74c-38 0 -76 25 -76 74zM185 -80c-7 0 -16 4 -23 14c-97 128 -141 271 -141 446s46 320 141 446c7 9 16 13 23 13c11 0 20 -8 20 -19c0 -4 -1 -8 -3 -12
c-77 -137 -109 -302 -109 -428c0 -128 31 -291 109 -428c2 -4 3 -8 3 -12c0 -11 -9 -20 -20 -20z" />
    <glyph glyph-name="Japan1.8121" unicode="&#x24a5;" 
d="M838 -66c-7 -10 -16 -14 -23 -14c-11 0 -20 9 -20 20c0 4 1 8 3 12c78 137 109 300 109 428c0 126 -32 291 -109 428c-2 4 -3 8 -3 12c0 11 9 19 20 19c7 0 16 -4 23 -13c95 -126 141 -271 141 -446s-44 -318 -141 -446zM610 748c0 -50 -41 -91 -91 -91s-91 41 -91 91
s41 90 91 90s91 -40 91 -90zM446 205v341c0 46 36 69 72 69c37 0 74 -23 74 -69v-352c0 -223 -187 -272 -227 -272c-36 0 -54 26 -54 52c0 21 13 43 39 50c39 10 96 39 96 181zM185 -80c-7 0 -16 4 -23 14c-97 128 -141 271 -141 446s46 320 141 446c7 9 16 13 23 13
c11 0 20 -8 20 -19c0 -4 -1 -8 -3 -12c-77 -137 -109 -302 -109 -428c0 -128 31 -291 109 -428c2 -4 3 -8 3 -12c0 -11 -9 -20 -20 -20z" />
    <glyph glyph-name="Japan1.8122" unicode="&#x24a6;" 
d="M838 -66c-7 -10 -16 -14 -23 -14c-11 0 -20 9 -20 20c0 4 1 8 3 12c78 137 109 300 109 428c0 126 -32 291 -109 428c-2 4 -3 8 -3 12c0 11 9 19 20 19c7 0 16 -4 23 -13c95 -126 141 -271 141 -446s-44 -318 -141 -446zM624 -3l-160 234l-25 -24v-177
c0 -45 -34 -68 -68 -68c-33 0 -66 23 -66 68v723c0 46 33 69 67 69c33 0 67 -23 67 -69v-434c76 65 207 199 207 199c14 13 29 19 43 19c27 0 49 -20 49 -46c0 -16 -8 -33 -27 -51l-143 -130l167 -210c18 -22 25 -44 25 -63c0 -43 -36 -75 -75 -75c-21 0 -44 10 -61 35z
M185 -80c-7 0 -16 4 -23 14c-97 128 -141 271 -141 446s46 320 141 446c7 9 16 13 23 13c11 0 20 -8 20 -19c0 -4 -1 -8 -3 -12c-77 -137 -109 -302 -109 -428c0 -128 31 -291 109 -428c2 -4 3 -8 3 -12c0 -11 -9 -20 -20 -20z" />
    <glyph glyph-name="Japan1.8123" unicode="&#x24a7;" 
d="M838 -66c-7 -10 -16 -14 -23 -14c-11 0 -20 9 -20 20c0 4 1 8 3 12c78 137 109 300 109 428c0 126 -32 291 -109 428c-2 4 -3 8 -3 12c0 11 9 19 20 19c7 0 16 -4 23 -13c95 -126 141 -271 141 -446s-44 -318 -141 -446zM427 23v709c0 51 36 77 72 77c37 0 74 -26 74 -77
v-709c0 -48 -36 -72 -73 -72c-36 0 -73 24 -73 72zM185 -80c-7 0 -16 4 -23 14c-97 128 -141 271 -141 446s46 320 141 446c7 9 16 13 23 13c11 0 20 -8 20 -19c0 -4 -1 -8 -3 -12c-77 -137 -109 -302 -109 -428c0 -128 31 -291 109 -428c2 -4 3 -8 3 -12
c0 -11 -9 -20 -20 -20z" />
    <glyph glyph-name="Japan1.8124" unicode="&#x24a8;" 
d="M838 -66c-7 -10 -16 -14 -23 -14c-11 0 -20 9 -20 20c0 4 1 8 3 12c78 137 109 300 109 428c0 126 -32 291 -109 428c-2 4 -3 8 -3 12c0 11 9 19 20 19c7 0 16 -4 23 -13c95 -126 141 -271 141 -446s-44 -318 -141 -446zM697 158v262c0 122 -15 150 -59 150
c-34 0 -76 -45 -76 -127v-285c0 -47 -30 -71 -60 -71c-31 0 -61 24 -61 71v262c0 122 -23 150 -63 150c-42 0 -74 -67 -74 -132v-279c0 -48 -31 -72 -63 -72c-31 0 -63 24 -63 72v442c0 45 33 67 66 67c30 0 60 -20 60 -56c20 31 60 51 107 51c45 0 98 -30 119 -76
c44 65 94 76 142 76c94 0 151 -64 151 -224v-281c0 -47 -32 -71 -63 -71c-32 0 -63 24 -63 71zM185 -80c-7 0 -16 4 -23 14c-97 128 -141 271 -141 446s46 320 141 446c7 9 16 13 23 13c11 0 20 -8 20 -19c0 -4 -1 -8 -3 -12c-77 -137 -109 -302 -109 -428
c0 -128 31 -291 109 -428c2 -4 3 -8 3 -12c0 -11 -9 -20 -20 -20z" />
    <glyph glyph-name="Japan1.8125" unicode="&#x24a9;" 
d="M838 -66c-7 -10 -16 -14 -23 -14c-11 0 -20 9 -20 20c0 4 1 8 3 12c78 137 109 300 109 428c0 126 -32 291 -109 428c-2 4 -3 8 -3 12c0 11 9 19 20 19c7 0 16 -4 23 -13c95 -126 141 -271 141 -446s-44 -318 -141 -446zM597 159v253c0 120 -13 161 -86 161
c-46 0 -109 -49 -109 -136v-278c0 -47 -34 -70 -68 -70c-35 0 -69 23 -69 70v435c0 51 35 74 70 74c34 0 67 -22 67 -61c30 40 95 59 151 59c130 0 181 -91 181 -223v-284c0 -47 -34 -70 -68 -70c-35 0 -69 23 -69 70zM185 -80c-7 0 -16 4 -23 14c-97 128 -141 271 -141 446
s46 320 141 446c7 9 16 13 23 13c11 0 20 -8 20 -19c0 -4 -1 -8 -3 -12c-77 -137 -109 -302 -109 -428c0 -128 31 -291 109 -428c2 -4 3 -8 3 -12c0 -11 -9 -20 -20 -20z" />
    <glyph glyph-name="Japan1.8126" unicode="&#x24aa;" 
d="M838 -66c-7 -10 -16 -14 -23 -14c-11 0 -20 9 -20 20c0 4 1 8 3 12c78 137 109 300 109 428c0 126 -32 291 -109 428c-2 4 -3 8 -3 12c0 11 9 19 20 19c7 0 16 -4 23 -13c95 -126 141 -271 141 -446s-44 -318 -141 -446zM500 85c-168 0 -271 131 -271 290
s103 290 271 290c170 0 271 -131 271 -290s-101 -290 -271 -290zM185 -80c-7 0 -16 4 -23 14c-97 128 -141 271 -141 446s46 320 141 446c7 9 16 13 23 13c11 0 20 -8 20 -19c0 -4 -1 -8 -3 -12c-77 -137 -109 -302 -109 -428c0 -128 31 -291 109 -428c2 -4 3 -8 3 -12
c0 -11 -9 -20 -20 -20zM499 167c81 0 127 85 127 212s-38 207 -120 207c-80 0 -131 -84 -131 -210c0 -132 42 -209 124 -209z" />
    <glyph glyph-name="Japan1.8127" unicode="&#x24ab;" 
d="M838 -66c-7 -10 -16 -14 -23 -14c-11 0 -20 9 -20 20c0 4 1 8 3 12c78 137 109 300 109 428c0 126 -32 291 -109 428c-2 4 -3 8 -3 12c0 11 9 19 20 19c7 0 16 -4 23 -13c95 -126 141 -271 141 -446s-44 -318 -141 -446zM268 -1v671c0 43 35 65 70 65c34 0 69 -22 69 -69
c36 47 80 69 144 69c161 0 236 -143 236 -286c0 -177 -89 -292 -248 -292c-87 0 -112 36 -132 44v-202c0 -46 -35 -69 -69 -69c-35 0 -70 23 -70 69zM185 -80c-7 0 -16 4 -23 14c-97 128 -141 271 -141 446s46 320 141 446c7 9 16 13 23 13c11 0 20 -8 20 -19
c0 -4 -1 -8 -3 -12c-77 -137 -109 -302 -109 -428c0 -128 31 -291 109 -428c2 -4 3 -8 3 -12c0 -11 -9 -20 -20 -20zM528 246c79 0 117 88 117 200c0 102 -22 204 -115 204c-46 0 -99 -48 -113 -115c-6 -28 -10 -66 -10 -105c0 -41 5 -81 15 -108c19 -49 63 -76 106 -76z
" />
    <glyph glyph-name="Japan1.8128" unicode="&#x24ac;" 
d="M838 -66c-7 -10 -16 -14 -23 -14c-11 0 -20 9 -20 20c0 4 1 8 3 12c78 137 109 300 109 428c0 126 -32 291 -109 428c-2 4 -3 8 -3 12c0 11 9 19 20 19c7 0 16 -4 23 -13c95 -126 141 -271 141 -446s-44 -318 -141 -446zM606 2v212c-49 -41 -99 -56 -168 -56
c-114 0 -230 75 -230 285c0 164 106 295 250 295c71 0 110 -23 148 -58v1c0 38 33 58 65 58c33 0 65 -20 65 -62v-675c0 -47 -33 -70 -65 -70c-33 0 -65 23 -65 70zM185 -80c-7 0 -16 4 -23 14c-97 128 -141 271 -141 446s46 320 141 446c7 9 16 13 23 13c11 0 20 -8 20 -19
c0 -4 -1 -8 -3 -12c-77 -137 -109 -302 -109 -428c0 -128 31 -291 109 -428c2 -4 3 -8 3 -12c0 -11 -9 -20 -20 -20zM478 251c43 0 123 23 123 194c0 31 -2 61 -5 86c-6 63 -51 116 -110 116c-105 0 -134 -101 -134 -212c0 -98 38 -184 126 -184z" />
    <glyph glyph-name="Japan1.8129" unicode="&#x24ad;" 
d="M838 -66c-7 -10 -16 -14 -23 -14c-11 0 -20 9 -20 20c0 4 1 8 3 12c78 137 109 300 109 428c0 126 -32 291 -109 428c-2 4 -3 8 -3 12c0 11 9 19 20 19c7 0 16 -4 23 -13c95 -126 141 -271 141 -446s-44 -318 -141 -446zM375 140v441c0 44 36 65 71 65s69 -20 69 -59v-3
c22 35 69 64 132 64c22 0 68 -4 68 -51c0 -26 -19 -53 -48 -53h-5c-6 1 -12 1 -19 1c-70 0 -128 -38 -128 -128v-277c0 -46 -35 -69 -70 -69s-70 23 -70 69zM185 -80c-7 0 -16 4 -23 14c-97 128 -141 271 -141 446s46 320 141 446c7 9 16 13 23 13c11 0 20 -8 20 -19
c0 -4 -1 -8 -3 -12c-77 -137 -109 -302 -109 -428c0 -128 31 -291 109 -428c2 -4 3 -8 3 -12c0 -11 -9 -20 -20 -20z" />
    <glyph glyph-name="Japan1.8130" unicode="&#x24ae;" 
d="M838 -66c-7 -10 -16 -14 -23 -14c-11 0 -20 9 -20 20c0 4 1 8 3 12c78 137 109 300 109 428c0 126 -32 291 -109 428c-2 4 -3 8 -3 12c0 11 9 19 20 19c7 0 16 -4 23 -13c95 -126 141 -271 141 -446s-44 -318 -141 -446zM440 333c-142 30 -147 126 -147 155
c0 121 100 177 208 177c105 0 186 -60 186 -106c0 -26 -21 -48 -46 -48c-13 0 -28 7 -40 22c-18 22 -53 45 -96 45c-75 0 -85 -40 -85 -59c0 -58 85 -65 129 -76c87 -22 170 -55 170 -178c0 -112 -94 -181 -217 -181c-121 0 -220 65 -220 122c0 27 23 46 47 46
c14 0 28 -6 38 -20c20 -27 65 -51 119 -51c64 0 98 27 98 59c0 43 -32 67 -144 93zM185 -80c-7 0 -16 4 -23 14c-97 128 -141 271 -141 446s46 320 141 446c7 9 16 13 23 13c11 0 20 -8 20 -19c0 -4 -1 -8 -3 -12c-77 -137 -109 -302 -109 -428c0 -128 31 -291 109 -428
c2 -4 3 -8 3 -12c0 -11 -9 -20 -20 -20z" />
    <glyph glyph-name="Japan1.8131" unicode="&#x24af;" 
d="M838 -66c-7 -10 -16 -14 -23 -14c-11 0 -20 9 -20 20c0 4 1 8 3 12c78 137 109 300 109 428c0 126 -32 291 -109 428c-2 4 -3 8 -3 12c0 11 9 19 20 19c7 0 16 -4 23 -13c95 -126 141 -271 141 -446s-44 -318 -141 -446zM408 151v332h-50c-33 0 -49 24 -49 48
c0 23 16 47 49 47h50v114c0 47 34 71 68 71c35 0 69 -24 69 -71v-114h75c32 0 49 -24 49 -49c0 -23 -16 -46 -48 -46h-76v-300c0 -44 1 -74 39 -74c13 0 29 3 51 10c4 1 9 2 13 2c23 0 40 -20 40 -43c0 -51 -80 -74 -143 -74s-137 19 -137 147zM185 -80c-7 0 -16 4 -23 14
c-97 128 -141 271 -141 446s46 320 141 446c7 9 16 13 23 13c11 0 20 -8 20 -19c0 -4 -1 -8 -3 -12c-77 -137 -109 -302 -109 -428c0 -128 31 -291 109 -428c2 -4 3 -8 3 -12c0 -11 -9 -20 -20 -20z" />
    <glyph glyph-name="Japan1.8132" unicode="&#x24b0;" 
d="M838 -66c-7 -10 -16 -14 -23 -14c-11 0 -20 9 -20 20c0 4 1 8 3 12c78 137 109 300 109 428c0 126 -32 291 -109 428c-2 4 -3 8 -3 12c0 11 9 19 20 19c7 0 16 -4 23 -13c95 -126 141 -271 141 -446s-44 -318 -141 -446zM587 317v274c0 51 35 76 69 76
c35 0 70 -25 70 -76v-437c0 -47 -36 -69 -71 -69c-34 0 -68 20 -68 60c-29 -39 -94 -59 -150 -59c-133 0 -185 85 -185 243v262c0 51 35 76 70 76c34 0 69 -25 69 -76v-242c0 -128 10 -170 85 -170c48 0 111 51 111 138zM185 -80c-7 0 -16 4 -23 14
c-97 128 -141 271 -141 446s46 320 141 446c7 9 16 13 23 13c11 0 20 -8 20 -19c0 -4 -1 -8 -3 -12c-77 -137 -109 -302 -109 -428c0 -128 31 -291 109 -428c2 -4 3 -8 3 -12c0 -11 -9 -20 -20 -20z" />
    <glyph glyph-name="Japan1.8133" unicode="&#x24b1;" 
d="M838 -66c-7 -10 -16 -14 -23 -14c-11 0 -20 9 -20 20c0 4 1 8 3 12c78 137 109 300 109 428c0 126 -32 291 -109 428c-2 4 -3 8 -3 12c0 11 9 19 20 19c7 0 16 -4 23 -13c95 -126 141 -271 141 -446s-44 -318 -141 -446zM428 154l-168 418c-4 11 -6 21 -6 30
c0 42 39 71 77 71c26 0 51 -13 62 -43l130 -342c3 -9 7 -14 11 -14s8 5 12 16l106 355c5 18 23 27 42 27c25 0 52 -16 52 -45c0 -5 -1 -11 -3 -17l-150 -453c-14 -41 -47 -60 -81 -60s-69 19 -84 57zM185 -80c-7 0 -16 4 -23 14c-97 128 -141 271 -141 446s46 320 141 446
c7 9 16 13 23 13c11 0 20 -8 20 -19c0 -4 -1 -8 -3 -12c-77 -137 -109 -302 -109 -428c0 -128 31 -291 109 -428c2 -4 3 -8 3 -12c0 -11 -9 -20 -20 -20z" />
    <glyph glyph-name="Japan1.8134" unicode="&#x24b2;" 
d="M838 -66c-7 -10 -16 -14 -23 -14c-11 0 -20 9 -20 20c0 4 1 8 3 12c78 137 109 300 109 428c0 126 -32 291 -109 428c-2 4 -3 8 -3 12c0 11 9 19 20 19c7 0 16 -4 23 -13c95 -126 141 -271 141 -446s-44 -318 -141 -446zM278 607c0 0 27 -126 48 -213
c15 -62 20 -90 31 -143c1 -3 2 -5 4 -5s4 2 5 6c11 54 15 81 29 145c15 71 24 120 37 183c9 46 45 68 80 68c36 0 71 -22 82 -62c18 -68 22 -109 38 -178c16 -67 23 -99 36 -157c1 -6 4 -9 6 -9c3 0 5 4 7 11c10 52 17 89 31 155c18 84 41 208 41 208c4 21 24 32 44 32
c23 0 46 -15 46 -45c0 -22 -87 -406 -98 -452c-11 -48 -46 -72 -81 -72c-34 0 -69 23 -81 71c-17 64 -25 114 -44 191c-15 60 -19 96 -31 148c-1 7 -5 10 -8 10s-7 -4 -8 -9c-11 -54 -15 -89 -28 -151c-17 -77 -21 -111 -39 -185c-12 -48 -48 -74 -84 -74
c-33 0 -66 23 -79 71c-25 92 -107 404 -107 431c0 44 34 66 67 66c26 0 50 -14 56 -41zM185 -80c-7 0 -16 4 -23 14c-97 128 -141 271 -141 446s46 320 141 446c7 9 16 13 23 13c11 0 20 -8 20 -19c0 -4 -1 -8 -3 -12c-77 -137 -109 -302 -109 -428c0 -128 31 -291 109 -428
c2 -4 3 -8 3 -12c0 -11 -9 -20 -20 -20z" />
    <glyph glyph-name="Japan1.8135" unicode="&#x24b3;" 
d="M838 -66c-7 -10 -16 -14 -23 -14c-11 0 -20 9 -20 20c0 4 1 8 3 12c78 137 109 300 109 428c0 126 -32 291 -109 428c-2 4 -3 8 -3 12c0 11 9 19 20 19c7 0 16 -4 23 -13c95 -126 141 -271 141 -446s-44 -318 -141 -446zM639 113l-148 190l-152 -192
c-10 -12 -24 -18 -38 -18c-26 0 -52 18 -52 45c0 12 5 26 17 41l158 194l-143 184c-12 16 -17 31 -17 45c0 37 35 65 70 65c20 0 39 -8 54 -27l122 -159l127 166c10 13 24 18 39 18c26 0 54 -19 54 -46c0 -11 -5 -24 -15 -37l-137 -171l155 -182c18 -21 25 -41 25 -60
c0 -43 -41 -75 -78 -75c-16 0 -31 6 -41 19zM185 -80c-7 0 -16 4 -23 14c-97 128 -141 271 -141 446s46 320 141 446c7 9 16 13 23 13c11 0 20 -8 20 -19c0 -4 -1 -8 -3 -12c-77 -137 -109 -302 -109 -428c0 -128 31 -291 109 -428c2 -4 3 -8 3 -12c0 -11 -9 -20 -20 -20z
" />
    <glyph glyph-name="Japan1.8136" unicode="&#x24b4;" 
d="M838 -66c-7 -10 -16 -14 -23 -14c-11 0 -20 9 -20 20c0 4 1 8 3 12c78 137 109 300 109 428c0 126 -32 291 -109 428c-2 4 -3 8 -3 12c0 11 9 19 20 19c7 0 16 -4 23 -13c95 -126 141 -271 141 -446s-44 -318 -141 -446zM467 213l-186 429c-6 13 -8 26 -8 37
c0 46 41 73 81 73c26 0 52 -12 63 -41l128 -331c53 114 125 334 127 338c8 23 29 33 49 33c26 0 52 -17 52 -48c0 -38 -173 -445 -231 -564c-68 -138 -161 -185 -224 -185c-36 0 -53 25 -53 50s16 50 47 52c73 5 114 70 144 131c4 8 10 25 11 26zM185 -80c-7 0 -16 4 -23 14
c-97 128 -141 271 -141 446s46 320 141 446c7 9 16 13 23 13c11 0 20 -8 20 -19c0 -4 -1 -8 -3 -12c-77 -137 -109 -302 -109 -428c0 -128 31 -291 109 -428c2 -4 3 -8 3 -12c0 -11 -9 -20 -20 -20z" />
    <glyph glyph-name="Japan1.8137" unicode="&#x24b5;" 
d="M838 -66c-7 -10 -16 -14 -23 -14c-11 0 -20 9 -20 20c0 4 1 8 3 12c78 137 109 300 109 428c0 126 -32 291 -109 428c-2 4 -3 8 -3 12c0 11 9 19 20 19c7 0 16 -4 23 -13c95 -126 141 -271 141 -446s-44 -318 -141 -446zM681 98h-350c-47 0 -74 31 -74 71
c0 24 10 51 31 77l247 305c2 3 4 7 4 11s-3 8 -9 8l-203 -2h-1c-33 0 -50 22 -50 45c0 24 18 48 52 48h313c47 0 78 -26 78 -63c0 -22 -10 -48 -33 -75l-265 -311c-1 -1 -2 -4 -2 -7c0 -5 3 -11 10 -11l249 2h1c35 0 52 -24 52 -49c0 -24 -17 -49 -50 -49zM185 -80
c-7 0 -16 4 -23 14c-97 128 -141 271 -141 446s46 320 141 446c7 9 16 13 23 13c11 0 20 -8 20 -19c0 -4 -1 -8 -3 -12c-77 -137 -109 -302 -109 -428c0 -128 31 -291 109 -428c2 -4 3 -8 3 -12c0 -11 -9 -20 -20 -20z" />
    <glyph glyph-name="Japan1.8184" 
d="M883 -47h-266c-31 0 -48 22 -48 46c0 14 6 28 18 39c63 59 104 90 150 139c39 41 72 74 72 119c0 33 -27 53 -60 53c-40 0 -73 -24 -89 -68c-6 -16 -25 -25 -44 -25c-22 0 -43 12 -43 38c0 32 45 139 188 139c104 0 176 -55 176 -139c0 -90 -41 -119 -219 -239
c-1 -1 -3 -4 -3 -6c0 -3 2 -5 7 -5c31 0 62 2 93 3c23 0 44 2 67 2h1c37 0 56 -24 56 -48s-18 -48 -56 -48zM102 -2l662 831c11 14 26 20 40 20c27 0 53 -20 53 -49c0 -12 -5 -26 -17 -41l-661 -829c-11 -14 -26 -20 -41 -20c-27 0 -52 20 -52 48c0 12 4 26 16 40zM174 404
v280c0 7 -3 11 -8 11c-8 0 -36 -20 -45 -27s-18 -9 -26 -9c-22 0 -39 21 -39 43c0 13 6 26 20 34c16 10 97 64 109 73c16 12 37 19 57 19c33 0 63 -19 63 -65v-359c0 -47 -33 -71 -66 -71s-65 23 -65 71z" />
    <glyph glyph-name="Japan1.8185" 
d="M898 27h-24v-31c0 -40 -31 -60 -62 -60s-62 20 -62 60v31h-185c-46 0 -61 28 -61 57c0 22 8 44 18 57l209 261c17 21 46 32 74 32c36 0 69 -18 69 -55v-266h23c28 0 42 -22 42 -44c0 -21 -14 -42 -41 -42zM117 -2l662 831c11 14 26 20 40 20c27 0 53 -20 53 -49
c0 -12 -5 -26 -17 -41l-661 -829c-11 -14 -26 -20 -41 -20c-27 0 -52 20 -52 48c0 12 4 26 16 40zM174 404v280c0 7 -3 11 -8 11c-8 0 -36 -20 -45 -27s-18 -9 -26 -9c-22 0 -39 21 -39 43c0 13 6 26 20 34c16 10 97 64 109 73c16 12 37 19 57 19c33 0 63 -19 63 -65v-359
c0 -47 -33 -71 -66 -71s-65 23 -65 71zM750 114v40c0 34 7 97 10 140v1c0 3 -2 5 -5 5s-6 -2 -9 -5c-9 -11 -35 -47 -67 -87c0 0 -54 -70 -70 -86c-1 -1 -1 -2 -1 -3c0 -3 5 -5 7 -5h135z" />
    <glyph glyph-name="Japan1.8224" unicode="&#x24ea;" 
d="M980 380c0 -265 -215 -480 -480 -480s-480 215 -480 480s215 480 480 480s480 -215 480 -480zM922 379c0 233 -189 422 -422 422s-422 -189 -422 -422s189 -421 422 -421s422 188 422 421zM499 58c-170 0 -280 129 -280 315c0 209 116 331 282 331s280 -125 280 -332
c0 -191 -110 -314 -282 -314zM500 138c101 0 125 109 125 234c0 128 -23 252 -124 252c-102 0 -126 -130 -126 -251c0 -125 26 -235 125 -235z" />
    <glyph glyph-name="Japan1.8225" unicode="&#x216a;" 
d="M728 18v685c0 61 41 90 83 90s85 -30 85 -90v-685c0 -60 -42 -90 -83 -90c-43 0 -85 30 -85 90zM554 -41l-183 316l-192 -315c-14 -23 -34 -33 -52 -33c-29 0 -56 23 -56 55c0 11 4 24 12 37l218 348l-183 301c-10 16 -14 32 -14 46c0 46 42 78 82 78c22 0 44 -10 58 -34
l150 -263l157 270c11 19 30 28 50 28c30 0 60 -21 60 -55c0 -13 -4 -28 -15 -44l-184 -287l214 -333c17 -26 24 -49 24 -69c0 -50 -44 -78 -85 -78c-25 0 -48 10 -61 32z" />
    <glyph glyph-name="Japan1.8226" unicode="&#x216b;" 
d="M776 10v701c0 54 36 81 73 81s74 -27 74 -81v-701c0 -55 -36 -82 -73 -82s-74 28 -74 82zM569 10v701c0 54 36 81 72 81c38 0 75 -28 75 -81v-701c0 -55 -37 -82 -73 -82c-37 0 -74 27 -74 82zM402 -35l-117 287l-134 -298c-8 -18 -27 -26 -47 -26c-30 0 -61 18 -61 52
c0 10 3 22 9 34l167 339l-145 326c-7 16 -10 31 -10 43c0 47 43 70 80 70c24 0 46 -9 53 -27l107 -264l120 262c9 19 28 28 47 28c30 0 62 -20 62 -53c0 -10 -3 -21 -9 -33l-158 -298l159 -347c10 -22 15 -42 15 -59c0 -49 -39 -73 -76 -73c-26 0 -52 13 -62 37z" />
    <glyph glyph-name="Japan1.8227" 
d="M838 -66c-7 -10 -16 -14 -23 -14c-11 0 -20 9 -20 20c0 4 1 8 3 12c78 137 109 300 109 428c0 126 -32 291 -109 428c-2 4 -3 8 -3 12c0 11 9 19 20 19c7 0 16 -4 23 -13c95 -126 141 -271 141 -446s-44 -318 -141 -446zM499 -36c-198 0 -291 166 -291 406
c0 267 97 427 293 427c195 0 291 -164 291 -429c0 -244 -91 -404 -293 -404zM185 -80c-7 0 -16 4 -23 14c-97 128 -141 271 -141 446s46 320 141 446c7 9 16 13 23 13c11 0 20 -8 20 -19c0 -4 -1 -8 -3 -12c-77 -137 -109 -302 -109 -428c0 -128 31 -291 109 -428
c2 -4 3 -8 3 -12c0 -11 -9 -20 -20 -20zM500 58c118 0 129 163 129 310c0 193 -10 339 -128 339c-129 0 -130 -182 -130 -338c0 -145 11 -311 129 -311z" />
    <glyph glyph-name="Japan1.8228" 
d="M288 -12l-49 -66c-12 -15 -26 -22 -41 -22c-26 0 -51 22 -51 50c0 11 4 23 13 35l63 83c-41 72 -64 166 -64 281c0 278 117 455 342 455c86 0 154 -26 209 -74l49 67c11 15 26 22 41 22c27 0 53 -21 53 -49c0 -11 -4 -24 -14 -37l-63 -85c47 -83 65 -176 65 -301
c0 -258 -107 -430 -343 -430c-89 0 -157 27 -210 71zM329 216l302 406c-23 58 -67 93 -130 93c-151 0 -178 -211 -178 -367c0 -44 1 -89 6 -132zM668 501l-300 -404c24 -52 69 -87 132 -87c139 0 176 164 176 337c0 47 -1 101 -8 154z" />
    <glyph glyph-name="Japan1.8286" unicode="&#x2776;" 
d="M980 380c0 -265 -215 -480 -480 -480s-480 215 -480 480s215 480 480 480s480 -215 480 -480zM588 116v500c0 63 -35 86 -74 86c-28 0 -59 -12 -79 -30c-36 -32 -94 -71 -132 -96c-17 -12 -24 -29 -24 -45c0 -29 21 -58 48 -58c29 0 110 73 113 75c1 1 1 1 2 1
c2 0 3 -3 3 -6v-427c0 -47 36 -71 72 -71c35 0 71 24 71 71z" />
    <glyph glyph-name="Japan1.8287" unicode="&#x2777;" 
d="M980 380c0 -265 -215 -480 -480 -480s-480 215 -480 480s215 480 480 480s480 -215 480 -480zM319 60h357c39 0 58 32 58 64c0 31 -19 63 -57 63c-18 0 -155 0 -185 -1h-36c-14 0 -31 0 -47 -1c0 0 -6 0 -6 2l1 1c34 21 95 59 131 85c91 66 199 113 199 247
c0 126 -108 186 -231 186c-176 0 -249 -133 -249 -185c0 -30 26 -45 52 -45c22 0 43 11 48 31c17 74 92 94 127 94c50 0 100 -27 100 -81c0 -61 -83 -135 -126 -178c-67 -66 -134 -120 -177 -166c-15 -16 -23 -38 -23 -58c0 -31 19 -58 64 -58z" />
    <glyph glyph-name="Japan1.8288" unicode="&#x2778;" 
d="M980 380c0 -265 -215 -480 -480 -480s-480 215 -480 480s215 480 480 480s480 -215 480 -480zM462 453h-27c-35 0 -52 -25 -52 -50s18 -51 53 -51c12 0 26 1 39 1h2c59 0 121 -39 121 -90c0 -63 -50 -105 -131 -105c-50 0 -113 10 -141 52c-8 13 -21 18 -33 18
c-25 0 -50 -20 -50 -49c0 -40 70 -131 231 -131c153 0 278 74 278 210c0 75 -56 139 -132 155c76 32 102 93 102 138c0 98 -103 156 -219 156c-189 0 -236 -118 -236 -142c0 -26 24 -46 48 -46c17 0 33 9 44 30c28 56 94 61 116 61c58 0 98 -27 98 -66
c0 -61 -58 -91 -111 -91z" />
    <glyph glyph-name="Japan1.8289" unicode="&#x2779;" 
d="M980 380c0 -265 -215 -480 -480 -480s-480 215 -480 480s215 480 480 480s480 -215 480 -480zM632 141v31h52c34 0 51 27 51 54c0 28 -18 56 -52 56h-51v371c0 42 -33 60 -68 60c-29 0 -60 -12 -76 -33l-282 -379c-11 -14 -21 -40 -21 -65c0 -33 17 -64 71 -64h241v-31
c0 -47 34 -70 68 -70c33 0 67 23 67 70zM496 281h-171c-2 0 -3 1 -3 2c0 2 0 2 94 131c89 122 90 122 90 122c1 0 1 -1 1 -5c-5 -75 -11 -160 -11 -189v-61z" />
    <glyph glyph-name="Japan1.8290" unicode="&#x277a;" 
d="M980 380c0 -265 -215 -480 -480 -480s-480 215 -480 480s215 480 480 480s480 -215 480 -480zM658 688h-274c-48 0 -72 -16 -79 -69l-31 -241v-7c0 -30 26 -41 50 -41c16 0 31 4 37 12c24 29 71 47 112 47c72 0 128 -45 128 -116c0 -67 -54 -124 -142 -124
c-42 0 -105 17 -118 36c-10 14 -23 19 -35 19c-25 0 -50 -21 -50 -49c0 -62 115 -112 218 -112c164 0 277 86 277 219c0 159 -141 213 -253 213c-32 0 -84 -10 -115 -25l13 109s4 6 5 6h258c41 0 60 30 60 60c0 31 -21 63 -61 63z" />
    <glyph glyph-name="Japan1.8291" unicode="&#x277b;" 
d="M980 380c0 -265 -215 -480 -480 -480s-480 215 -480 480s215 480 480 480s480 -215 480 -480zM377 453c15 117 88 167 147 167c39 0 85 -6 115 -33c9 -8 19 -12 28 -12c24 0 47 23 47 49c0 22 -30 87 -195 87c-155 0 -290 -105 -290 -365c0 -140 58 -293 268 -293
c163 0 252 101 252 226c0 111 -71 216 -232 216c-54 0 -108 -17 -140 -42zM498 139c-79 0 -119 71 -119 130c0 92 46 139 117 139c70 0 101 -56 101 -126c0 -73 -18 -143 -99 -143z" />
    <glyph glyph-name="Japan1.8292" unicode="&#x277c;" 
d="M980 380c0 -265 -215 -480 -480 -480s-480 215 -480 480s215 480 480 480s480 -215 480 -480zM689 678h-356c-42 0 -63 -35 -63 -71c0 -35 21 -70 64 -70h278c4 0 5 -2 5 -4s-1 -4 -2 -5c-22 -32 -164 -246 -266 -405c-6 -9 -8 -18 -8 -27c0 -29 29 -54 60 -54
c17 0 34 8 46 27c103 165 211 332 288 448c19 29 28 58 28 83c0 45 -27 78 -74 78z" />
    <glyph glyph-name="Japan1.8293" unicode="&#x277d;" 
d="M980 380c0 -265 -215 -480 -480 -480s-480 215 -480 480s215 480 480 480s480 -215 480 -480zM633 404c49 19 103 61 103 137c0 111 -106 168 -233 168c-117 0 -243 -51 -243 -170c0 -82 75 -130 109 -141c-73 -31 -134 -84 -134 -161c0 -130 119 -187 264 -187
c147 0 264 66 264 201c0 75 -70 130 -130 153zM542 452c-115 38 -153 72 -153 111c0 40 50 68 111 68c56 0 107 -38 107 -91c0 -42 -39 -74 -65 -88zM457 352c3 -3 12 -4 23 -9c74 -29 146 -62 146 -122c0 -70 -69 -86 -128 -86c-69 0 -131 38 -131 111c0 67 62 99 90 106z
" />
    <glyph glyph-name="Japan1.8294" unicode="&#x277e;" 
d="M980 380c0 -265 -215 -480 -480 -480s-480 215 -480 480s215 480 480 480s480 -215 480 -480zM625 306c-12 -109 -80 -163 -165 -163c-45 0 -90 13 -107 25c-9 6 -19 9 -28 9c-25 0 -45 -20 -45 -45c0 -50 83 -89 193 -89c180 0 296 128 296 353c0 140 -59 309 -259 309
c-156 0 -260 -107 -260 -242c0 -109 75 -205 219 -205c58 0 110 11 156 48zM498 361c-51 0 -100 51 -100 120c0 73 42 140 112 140c66 0 108 -63 108 -128c0 -86 -53 -132 -120 -132z" />
    <glyph glyph-name="Japan1.8295" 
d="M811 1v720c0 48 31 72 61 72c32 0 63 -25 63 -72v-720c0 -48 -31 -72 -62 -72s-62 24 -62 72zM650 1v720c0 48 31 72 61 72c32 0 63 -25 63 -72v-720c0 -48 -31 -72 -62 -72s-62 24 -62 72zM486 1v720c0 48 31 72 61 72c32 0 63 -25 63 -72v-720c0 -48 -31 -72 -62 -72
s-62 24 -62 72zM325 -31l-88 261l-112 -271c-8 -20 -28 -30 -48 -30c-26 0 -51 16 -51 47c0 10 2 20 7 32l149 343l-127 345c-4 11 -6 22 -6 32c0 40 32 64 65 64c27 0 55 -16 66 -51l76 -233l83 254c7 21 26 30 45 30c28 0 57 -18 57 -52c0 -9 -2 -18 -6 -28l-125 -314
l133 -358c6 -16 9 -31 9 -43c0 -46 -34 -70 -68 -70c-25 0 -50 14 -59 42z" />
    <glyph glyph-name="Japan1.8296" 
d="M807 136l85 621c3 23 25 36 47 36c24 0 47 -15 47 -48c0 -4 0 -9 -1 -13l-113 -703c-11 -67 -49 -100 -88 -100c-40 0 -80 36 -91 106l-102 677c-1 5 -1 10 -1 14c0 44 32 67 63 67c27 0 54 -17 58 -52l77 -605c2 -10 6 -15 10 -15s8 5 9 15zM445 -5v734
c0 43 30 63 60 63s61 -21 61 -63v-734c0 -44 -30 -66 -61 -66c-30 0 -60 22 -60 66zM302 -36l-92 292l-102 -302c-6 -17 -24 -26 -44 -26c-24 0 -48 15 -48 45c0 9 2 19 6 30l141 360l-120 340c-4 10 -5 19 -5 28c0 39 32 62 64 62c25 0 51 -14 60 -47l73 -246l78 261
c7 22 26 32 45 32c25 0 51 -17 51 -48c0 -6 -1 -14 -4 -22l-119 -333l129 -356c6 -16 8 -30 8 -42c0 -44 -32 -65 -64 -65c-25 0 -49 13 -57 37z" />
    <glyph glyph-name="Japan1.8297" 
d="M776 152l96 603c4 25 25 37 48 37c27 0 56 -18 56 -50c0 -4 0 -7 -1 -11l-123 -686c-14 -76 -58 -116 -103 -116s-91 40 -106 122l-122 656c-1 6 -2 12 -2 17c0 45 37 69 73 69c32 0 63 -18 69 -57l93 -584c1 -7 6 -11 11 -11s10 4 11 11zM377 -39l-114 283l-121 -290
c-7 -18 -25 -26 -44 -26c-28 0 -58 19 -58 54c0 10 2 21 8 33l153 337l-134 328c-7 16 -10 31 -10 43c0 47 40 70 75 70c21 0 41 -9 48 -27l98 -260l110 260c7 18 25 26 44 26c28 0 59 -19 59 -52c0 -9 -3 -20 -8 -31l-146 -303l153 -350c10 -22 14 -42 14 -58
c0 -48 -36 -71 -70 -71c-25 0 -48 12 -57 34z" />
    <glyph glyph-name="Japan1.8298" unicode="&#x217a;" 
d="M854 712c0 -54 -45 -97 -97 -97s-96 43 -96 97c0 52 44 96 96 96s97 -44 97 -96zM680 7v453c0 55 38 83 76 83c39 0 78 -29 78 -83v-453c0 -54 -38 -80 -76 -80c-39 0 -78 27 -78 80zM515 -49l-144 204l-148 -206c-10 -15 -25 -21 -39 -21c-26 0 -52 21 -52 50
c0 12 4 26 15 40l161 213l-140 192c-11 15 -16 30 -16 45c0 41 37 76 75 76c20 0 41 -10 57 -33l119 -165l119 173c11 17 27 23 42 23c28 0 55 -23 55 -52c0 -10 -4 -21 -12 -32l-141 -189l149 -194c19 -25 27 -49 27 -69c0 -47 -42 -78 -80 -78c-18 0 -36 7 -47 23z" />
    <glyph glyph-name="Japan1.8299" unicode="&#x217b;" 
d="M851 623c-47 0 -89 39 -89 89c0 47 42 88 89 88s88 -41 88 -88c0 -50 -41 -89 -88 -89zM636 623c-47 0 -89 39 -89 89c0 47 42 88 89 88s88 -41 88 -88c0 -50 -41 -89 -88 -89zM782 0v466c0 51 35 76 70 76c36 0 72 -26 72 -76v-466c0 -48 -35 -72 -71 -72
c-35 0 -71 24 -71 72zM567 0v466c0 51 35 76 69 76c36 0 72 -26 72 -76v-466c0 -48 -35 -72 -70 -72c-36 0 -71 24 -71 72zM426 -48l-138 199l-138 -202c-10 -14 -24 -20 -38 -20c-27 0 -54 22 -54 52c0 11 4 23 13 36l158 212l-141 197c-12 16 -16 32 -16 46
c0 41 37 71 73 71c19 0 37 -8 49 -26l116 -169l123 177c8 12 21 17 34 17c26 0 53 -19 53 -48c0 -11 -4 -23 -13 -36l-136 -189l159 -209c14 -18 19 -35 19 -51c0 -45 -42 -79 -80 -79c-17 0 -32 7 -43 22z" />
    <glyph glyph-name="Japan1.8300" 
d="M880 629c-43 0 -80 37 -80 82c0 43 37 81 80 81s81 -38 81 -81c0 -45 -38 -82 -81 -82zM706 629c-43 0 -80 37 -80 82c0 43 37 81 80 81s81 -38 81 -81c0 -45 -38 -82 -81 -82zM534 629c-43 0 -80 37 -80 82c0 43 37 81 80 81s81 -38 81 -81c0 -45 -38 -82 -81 -82z
M821 -2v479c0 44 30 65 61 65s62 -22 62 -65v-479c0 -47 -30 -71 -61 -71s-62 24 -62 71zM647 -2v479c0 44 30 65 61 65s62 -22 62 -65v-479c0 -47 -30 -71 -61 -71s-62 24 -62 71zM475 -1v478c0 44 30 65 61 65s62 -22 62 -65v-478c0 -48 -30 -72 -61 -72s-62 24 -62 72z
M347 -47l-114 198l-120 -209c-5 -9 -17 -14 -30 -14c-24 0 -53 15 -53 44c0 11 4 23 13 37l136 216l-128 212c-9 15 -13 29 -13 42c0 38 35 63 68 63c18 0 36 -8 47 -26l103 -174l106 183c7 11 19 17 32 17c22 0 46 -16 46 -42c0 -9 -3 -20 -10 -32l-124 -202l136 -227
c11 -17 15 -33 15 -48c0 -38 -34 -63 -65 -63c-18 0 -35 8 -45 25z" />
    <glyph glyph-name="Japan1.8301" 
d="M580 711c0 -45 -37 -80 -80 -80s-79 35 -79 80c0 43 36 79 79 79s80 -36 80 -79zM718 -10l-132 447c-4 13 -6 25 -6 36c0 47 34 69 66 69c26 0 51 -14 58 -42l92 -367c2 -8 5 -13 8 -13s6 5 9 15l92 377c5 20 23 31 41 31c21 0 42 -14 42 -44c0 -6 -1 -13 -3 -20
l-127 -486c-11 -44 -40 -65 -70 -65c-29 0 -58 20 -70 62zM441 -1v478c0 44 30 65 60 65s61 -22 61 -65v-478c0 -48 -30 -72 -60 -72c-31 0 -61 24 -61 72zM321 -47l-109 199l-113 -210c-5 -10 -16 -14 -29 -14c-22 0 -47 15 -47 44c0 11 4 23 12 38l127 217l-121 210
c-8 15 -12 29 -12 41c0 38 33 64 64 64c17 0 34 -8 44 -26l98 -174l100 183c6 12 18 17 31 17c21 0 43 -15 43 -41c0 -9 -3 -20 -10 -32l-118 -201l130 -228c10 -18 14 -34 14 -48c0 -40 -32 -65 -61 -65c-17 0 -33 8 -43 26z" />
    <glyph glyph-name="Japan1.8302" 
d="M677 -17l-159 464c-4 11 -5 20 -5 29c0 45 42 69 80 69c26 0 51 -12 58 -36l114 -380c2 -8 7 -13 11 -13s8 5 11 15l94 385c5 20 24 29 45 29c27 0 55 -15 55 -45c0 -4 -1 -9 -2 -14l-142 -500c-10 -37 -45 -56 -81 -56c-33 0 -67 17 -79 53zM400 -50l-130 200l-138 -208
c-7 -10 -19 -15 -33 -15c-26 0 -56 18 -56 47c0 11 4 24 14 38l156 217l-140 200c-12 17 -17 33 -17 48c0 39 36 65 70 65c18 0 35 -8 46 -24l122 -178l110 185c7 11 19 17 33 17c24 0 51 -17 51 -47c0 -11 -4 -24 -13 -38l-123 -195l145 -205c16 -22 22 -42 22 -60
c0 -43 -39 -69 -74 -69c-19 0 -35 7 -45 22z" />
  </font>
</defs>
</svg>
